<svg viewBox="0 0 310 310" xmlns="http://www.w3.org/2000/svg">
    <title>Almonds</title>
    <g data-name="Layer 2" id="Layer_2">
        <g data-name="Layer 1" id="Layer_1-2">
            <path
                d="M11.51,215.6a178.69,178.69,0,0,1,3.65-45.79C28.21,106.27,64.78,55.23,110.81,10.27c4.85-4.65,43.1,52,46.42,57.41,27,43.6,28.25,98.28,11.54,145.51-10.69,30.23-29.24,66.65-60.14,81C55.83,318.61,14.17,261.29,11.51,215.6Z"
                fill="#c4721a" stroke="#774004" stroke-miterlimit="10" stroke-width="0.5" />
            <path
                d="M50.91,245.53c-.34-40.37,1.52-81.43,13-120.39A223.85,223.85,0,0,1,76.3,92.51c.65-1.37-2.89-3.9-3.37-2.89C55.36,126.7,49.31,167.78,47.76,208.45c-.45,11.56-.53,23.13-.44,34.69,0,1.4,3.6,3.59,3.59,2.39Z"
                fill="#774004" stroke="#774004" stroke-miterlimit="10" stroke-width="1.36" />
            <path
                d="M79.27,238.56l12.56-91.07c.18-1.36-3.4-3.74-3.59-2.4L75.68,236.17c-.18,1.36,3.4,3.73,3.59,2.39Z"
                fill="#774004" stroke="#774004" stroke-miterlimit="10" stroke-width="1.36" />
            <path
                d="M119.65,238.49a296.56,296.56,0,0,0,14.49-112.9,296,296,0,0,0-3.93-32.37c-.22-1.23-3.86-3.5-3.55-1.75A295,295,0,0,1,124.57,205a293,293,0,0,1-8.51,31.07c-.41,1.23,3.11,3.83,3.59,2.39Z"
                fill="#774004" stroke="#774004" stroke-miterlimit="10" stroke-width="1.36" />
            <path
                d="M72.9,164.4a178.81,178.81,0,0,1,39.31-23.74c59.22-26.49,122-26.58,185.38-15.43,6.6,1.22-17.11,65.37-19.53,71.2-19.65,47.38-63.33,80.29-111.44,94.28-30.79,9-71.19,15.14-100.84-1.6C15.11,260.51,37.34,193.23,72.9,164.4Z"
                fill="#c4721a" stroke="#774004" stroke-miterlimit="10" stroke-width="0.5" />
            <path
                d="M71.58,213.87c32.59-23.84,67-46.28,105.36-59.69a223.28,223.28,0,0,1,33.73-9c1.48-.28,1.48-4.63.37-4.42-40.36,7.36-77.25,26.42-111.18,48.89-9.65,6.38-19.09,13.06-28.43,19.89-1.13.83-.81,5,.15,4.31Z"
                fill="#774004" stroke="#774004" stroke-miterlimit="10" stroke-width="1.36" />
            <path
                d="M93.79,232.83l81.29-43c1.21-.64,1-4.94-.15-4.3L93.64,228.52c-1.21.64-1,4.94.15,4.31Z"
                fill="#774004" stroke="#774004" stroke-miterlimit="10" stroke-width="1.36" />
            <path
                d="M117.41,265.58a296.57,296.57,0,0,0,100.14-54.11,293.29,293.29,0,0,0,24-22.09c.87-.89.59-5.17-.65-3.9a295.06,295.06,0,0,1-93.44,64.58,294.87,294.87,0,0,1-30.2,11.21c-1.23.39-1.3,4.76.15,4.31Z"
                fill="#774004" stroke="#774004" stroke-miterlimit="10" stroke-width="1.36" />
            <rect fill="none" height="310" width="310" />
        </g>
    </g>
</svg>