<svg viewBox="0 0 580.29 585.35" xmlns="http://www.w3.org/2000/svg">
    <title>Almond</title>
    <g data-name="Layer 2" id="Layer_2">
        <g data-name="Layer 1" id="Layer_1-2">
            <path
                d="M1,414.78c-1.79-30.72,1.24-62.42,7.37-92.26,26.29-128,100-230.88,192.72-321.47,9.77-9.37,86.85,104.86,93.54,115.67,54.44,87.86,56.93,198,23.26,293.21C296.35,470.85,259,544.23,196.71,573.07,90.32,622.35,6.38,506.86,1,414.78Z"
                fill="#c4721a" stroke="#774004" stroke-miterlimit="10" />
            <path
                d="M80.4,475.1c-.69-81.35,3.06-164.08,26.21-242.58a451.42,451.42,0,0,1,25-65.76c1.3-2.76-5.82-7.86-6.79-5.82-35.4,74.72-47.59,157.49-50.73,239.43-.89,23.29-1.07,46.61-.87,69.91,0,2.82,7.24,7.23,7.22,4.82Z"
                fill="#774004" stroke="#774004" stroke-miterlimit="10" stroke-width="2.75" />
            <path
                d="M137.54,461.05l25.31-183.52c.38-2.73-6.84-7.52-7.22-4.82L130.32,456.23c-.37,2.74,6.85,7.53,7.22,4.82Z"
                fill="#774004" stroke="#774004" stroke-miterlimit="10" stroke-width="2.75" />
            <path
                d="M218.91,460.91a597.73,597.73,0,0,0,29.21-227.49,596,596,0,0,0-7.93-65.24c-.44-2.48-7.77-7.05-7.14-3.52a594.74,594.74,0,0,1-4.21,228.83,594.12,594.12,0,0,1-17.15,62.6c-.82,2.47,6.25,7.72,7.22,4.82Z"
                fill="#774004" stroke="#774004" stroke-miterlimit="10" stroke-width="2.75" />
            <path
                d="M124.72,311.62c23.9-19.38,51.41-35.41,79.21-47.85,119.33-53.37,245.84-53.55,373.53-31.09,13.31,2.48-34.48,131.72-39.35,143.47-39.58,95.48-127.6,161.79-224.54,190-62,18-143.45,30.5-203.2-3.23C8.26,505.28,53.07,369.71,124.72,311.62Z"
                fill="#c4721a" stroke="#774004" stroke-miterlimit="10" />
            <path
                d="M122.05,411.29c65.67-48,135-93.26,212.3-120.27a452.14,452.14,0,0,1,68-18.1c3-.55,3-9.31.76-8.91-81.33,14.85-155.66,53.25-224,98.52-19.44,12.87-38.47,26.33-57.29,40.09-2.27,1.66-1.64,10.09.3,8.67Z"
                fill="#774004" stroke="#774004" stroke-miterlimit="10" stroke-width="2.75" />
            <path
                d="M166.81,449.5,330.61,363c2.44-1.29,2.12-10-.3-8.68l-163.8,86.54c-2.44,1.29-2.11,9.95.3,8.67Z"
                fill="#774004" stroke="#774004" stroke-miterlimit="10" stroke-width="2.75" />
            <path
                d="M214.41,515.49a597.59,597.59,0,0,0,201.78-109A593.6,593.6,0,0,0,464.54,362c1.76-1.81,1.2-10.43-1.3-7.86A594.64,594.64,0,0,1,275,484.22a593.74,593.74,0,0,1-60.84,22.6c-2.49.77-2.62,9.58.3,8.67Z"
                fill="#774004" stroke="#774004" stroke-miterlimit="10" stroke-width="2.75" />
        </g>
    </g>
</svg>