<svg viewBox="0 0 306.36 235.59" xmlns="http://www.w3.org/2000/svg">
    <title>Berries</title>
    <g data-name="Layer 2" id="Layer_2">
        <g data-name="Layer 1" id="Layer_1-2">
            <path
                d="M169.6,104.73C181.37,69.31,172.39,31.18,148.76,0,118.33,12.67,94.63,35.61,84.48,66.14c-11.76,35.42-2.78,73.54,20.85,104.72C135.75,158.19,159.46,135.26,169.6,104.73Z"
                fill="#108848" />
            <path
                d="M81.56,95.35c31,11.77,52.17,39.34,60.37,73.09-25.79,13.82-54.86,17.27-81.56,7.13C29.4,163.79,8.2,136.23,0,102.48,25.79,88.65,54.86,85.2,81.56,95.35Z"
                fill="#669940" />
            <circle cx="242.2" cy="118.96" fill="#ab0c57" r="23.88" stroke="#fff"
                stroke-miterlimit="10" stroke-width="2.9" />
            <circle cx="116.62" cy="168.86" fill="#c30055" r="23.88" stroke="#fff"
                stroke-miterlimit="10" stroke-width="2.9" />
            <circle cx="124.79" cy="147.14" fill="#c30055" r="23.88" stroke="#fff"
                stroke-miterlimit="10" stroke-width="2.9" />
            <circle cx="137.75" cy="178.35" fill="#c30055" r="23.88" stroke="#fff"
                stroke-miterlimit="10" stroke-width="2.9" />
            <circle cx="144.77" cy="113.27" fill="#c30055" r="23.88" stroke="#fff"
                stroke-miterlimit="10" stroke-width="2.9" />
            <circle cx="164.35" cy="179.19" fill="#c30055" r="23.88" stroke="#fff"
                stroke-miterlimit="10" stroke-width="2.9" />
            <circle cx="147.43" cy="146.2" fill="#c30055" r="23.88" stroke="#fff"
                stroke-miterlimit="10" stroke-width="2.9" />
            <circle cx="198.74" cy="180.36" fill="#c30055" r="23.88" stroke="#fff"
                stroke-miterlimit="10" stroke-width="2.9" />
            <circle cx="172.22" cy="87.51" fill="#c30055" r="23.88" stroke="#fff"
                stroke-miterlimit="10" stroke-width="2.9" />
            <circle cx="181.36" cy="151.92" fill="#c30055" r="23.88" stroke="#fff"
                stroke-miterlimit="10" stroke-width="2.9" />
            <circle cx="171.37" cy="114.11" fill="#c30055" r="23.88" stroke="#fff"
                stroke-miterlimit="10" stroke-width="2.9" />
            <circle cx="228.19" cy="93.62" fill="#ab0c57" r="23.88" stroke="#fff"
                stroke-miterlimit="10" stroke-width="2.9" />
            <circle cx="244.26" cy="153.21" fill="#ab0c57" r="23.88" stroke="#fff"
                stroke-miterlimit="10" stroke-width="2.9" />
            <circle cx="205.94" cy="72.51" fill="#c30055" r="23.88" stroke="#fff"
                stroke-miterlimit="10" stroke-width="2.9" />
            <circle cx="203.51" cy="92.05" fill="#c30055" r="23.88" stroke="#fff"
                stroke-miterlimit="10" stroke-width="2.9" />
            <circle cx="234.18" cy="175.66" fill="#c30055" r="23.88" stroke="#fff"
                stroke-miterlimit="10" stroke-width="2.9" />
            <circle cx="220.04" cy="147.09" fill="#c30055" r="23.88" stroke="#fff"
                stroke-miterlimit="10" stroke-width="2.9" />
            <circle cx="210.58" cy="122.21" fill="#c30055" r="23.88" stroke="#fff"
                stroke-miterlimit="10" stroke-width="2.9" />
            <circle cx="125.16" cy="180.48" fill="#403e45" r="13.08" stroke="#fff"
                stroke-miterlimit="10" stroke-width="1.59" />
            <circle cx="57.54" cy="210.49" fill="#444261" r="13.08" stroke="#fff"
                stroke-miterlimit="10" stroke-width="1.59" />
            <circle cx="61.54" cy="198.43" fill="#444261" r="13.08" stroke="#fff"
                stroke-miterlimit="10" stroke-width="1.59" />
            <circle cx="69.3" cy="215.23" fill="#444261" r="13.08" stroke="#fff"
                stroke-miterlimit="10" stroke-width="1.59" />
            <circle cx="71.74" cy="179.47" fill="#444261" r="13.08" stroke="#fff"
                stroke-miterlimit="10" stroke-width="1.59" />
            <circle cx="83.87" cy="215.12" fill="#444261" r="13.08" stroke="#fff"
                stroke-miterlimit="10" stroke-width="1.59" />
            <circle cx="73.91" cy="197.43" fill="#444261" r="13.08" stroke="#fff"
                stroke-miterlimit="10" stroke-width="1.59" />
            <circle cx="102.71" cy="215.01" fill="#444261" r="13.08" stroke="#fff"
                stroke-miterlimit="10" stroke-width="1.59" />
            <circle cx="86.2" cy="164.79" fill="#444261" r="13.08" stroke="#fff"
                stroke-miterlimit="10" stroke-width="1.59" />
            <circle cx="92.59" cy="199.83" fill="#444261" r="13.08" stroke="#fff"
                stroke-miterlimit="10" stroke-width="1.59" />
            <circle cx="86.31" cy="179.36" fill="#444261" r="13.08" stroke="#fff"
                stroke-miterlimit="10" stroke-width="1.59" />
            <circle cx="116.95" cy="166.92" fill="#403e45" r="13.08" stroke="#fff"
                stroke-miterlimit="10" stroke-width="1.59" />
            <circle cx="127.03" cy="199.17" fill="#403e45" r="13.08" stroke="#fff"
                stroke-miterlimit="10" stroke-width="1.59" />
            <circle cx="104.32" cy="155.85" fill="#444261" r="13.08" stroke="#fff"
                stroke-miterlimit="10" stroke-width="1.59" />
            <circle cx="103.41" cy="166.59" fill="#444261" r="13.08" stroke="#fff"
                stroke-miterlimit="10" stroke-width="1.59" />
            <circle cx="122" cy="211.67" fill="#444261" r="13.08" stroke="#fff"
                stroke-miterlimit="10" stroke-width="1.59" />
            <circle cx="113.65" cy="196.34" fill="#444261" r="13.08" stroke="#fff"
                stroke-miterlimit="10" stroke-width="1.59" />
            <circle cx="107.94" cy="182.94" fill="#444261" r="13.08" stroke="#fff"
                stroke-miterlimit="10" stroke-width="1.59" />
            <circle cx="174.74" cy="206.15" fill="#464ca6" r="15.88" />
            <polygon fill="#403488"
                points="175.22 201.3 173.27 200.29 171.32 201.34 171.68 199.16 170.09 197.64 172.27 197.3 173.22 195.32 174.22 197.28 176.4 197.58 174.83 199.13 175.22 201.3" />
            <circle cx="190.83" cy="219.7" fill="#556bb8" r="15.88" />
            <polygon fill="#403488"
                points="184.54 216.97 182.58 215.97 180.64 217.01 181 214.83 179.41 213.31 181.59 212.97 182.54 210.99 183.53 212.96 185.72 213.26 184.15 214.81 184.54 216.97" />
            <circle cx="202.27" cy="206.15" fill="#314e79" r="15.88" />
            <polygon fill="#23256e"
                points="209.96 202.57 208 201.56 206.06 202.6 206.41 200.43 204.82 198.91 207 198.57 207.96 196.59 208.95 198.56 211.13 198.85 209.57 200.41 209.96 202.57" />
            <path
                d="M289.84,163.79c-7.37.89-14.44-2.36-19.58-8.19,3.67-5.43,9.07-9.15,15.41-9.92,7.37-.9,14.44,2.36,19.59,8.19A21.91,21.91,0,0,1,289.84,163.79Z"
                fill="#669940" />
            <path
                d="M258,137.38c7.27,1.49,12.94,6.82,16,14a21.88,21.88,0,0,1-17.77,4.51c-7.27-1.49-12.94-6.82-16-14A21.87,21.87,0,0,1,258,137.38Z"
                fill="#669940" />
            <path
                d="M267.23,136.92c2.35-7,8.32-12,15.79-14.19,3.33,5.64,4.38,12.11,2.36,18.18-2.35,7-8.31,12-15.79,14.19C266.26,149.46,265.21,143,267.23,136.92Z"
                fill="#669940" />
            <path
                d="M257.58,148.75c-14.95.28-31.28,11.42-25.94,28.51,5.7,18.22,12.86,54.09,40.88,44.43,13.38-4.61,19.8-19.1,28.78-28.87s5.06-25.81-5.1-33.1c-10-7.14-23.41-9.77-35.39-10.86A31.4,31.4,0,0,0,257.58,148.75Z"
                fill="#d9240c" />
            <path
                d="M245.23,171.21a3,3,0,0,0,3-3,3,3,0,0,0-3-3,3.06,3.06,0,0,0-2.1.87,3,3,0,0,0,2.1,5.07Z"
                fill="#e9cd62" />
            <path
                d="M262.41,164.13a3,3,0,0,0,2.09-.87,3,3,0,0,0,.87-2.1,3,3,0,0,0-5.06-2.09,3,3,0,0,0-.87,2.09,3,3,0,0,0,3,3Z"
                fill="#e9cd62" />
            <path
                d="M287.67,174.74a3,3,0,0,0,3-3,3,3,0,0,0-3-3,3.06,3.06,0,0,0-2.1.87,3,3,0,0,0,2.1,5.06Z"
                fill="#e9cd62" />
            <path
                d="M270,179.29a3,3,0,0,0,2.1-.87,3,3,0,0,0,.87-2.1,3,3,0,0,0-5.06-2.1,3,3,0,0,0-.87,2.1,3,3,0,0,0,3,3Z"
                fill="#e9cd62" />
            <path
                d="M273.94,171.13a3.06,3.06,0,0,0,2.1-.87,3,3,0,0,0-2.1-5.07,3,3,0,0,0-3,3,3,3,0,0,0,3,3Z"
                fill="#e9cd62" />
            <path
                d="M251.8,185.35a3,3,0,0,0,2.09-.87,3,3,0,0,0,.87-2.1,3,3,0,0,0-5.06-2.09,3,3,0,0,0-.87,2.09,3,3,0,0,0,3,3Z"
                fill="#e9cd62" />
            <path
                d="M260.38,201.52a3,3,0,0,0,2.1-.87,3,3,0,0,0,.87-2.1,3,3,0,0,0-3-3,3.07,3.07,0,0,0-2.09.87,3,3,0,0,0-.87,2.1,3,3,0,0,0,3,3Z"
                fill="#e9cd62" />
            <path
                d="M279.58,191.92a3.06,3.06,0,0,0,2.1-.87,3,3,0,0,0,.87-2.1,3,3,0,0,0-3-3,3.11,3.11,0,0,0-2.1.87,3,3,0,0,0,2.1,5.07Z"
                fill="#e9cd62" />
            <path
                d="M274,207.08a3.06,3.06,0,0,0,2.1-.87,3,3,0,0,0-2.1-5.07,3.06,3.06,0,0,0-2.1.87,3,3,0,0,0-.87,2.1,3,3,0,0,0,3,3Z"
                fill="#e9cd62" />
            <path d="M261.9,214.66a3,3,0,0,0,3-3,3,3,0,0,0-3-3,3,3,0,0,0-3,3,3,3,0,0,0,3,3Z"
                fill="#e9cd62" />
            <path
                d="M247.75,200.51a3.06,3.06,0,0,0,2.1-.87,3,3,0,0,0-2.1-5.07,3.11,3.11,0,0,0-2.1.87,3.06,3.06,0,0,0-.87,2.1,3,3,0,0,0,3,3Z"
                fill="#e9cd62" />
            <path
                d="M265.44,189.4a3.11,3.11,0,0,0,2.1-.87,3.06,3.06,0,0,0,.87-2.1,3,3,0,0,0-3-3,3.06,3.06,0,0,0-2.1.87,3,3,0,0,0,2.1,5.07Z"
                fill="#e9cd62" />
            <path
                d="M294.74,186.36a3.06,3.06,0,0,0,2.1-.87,3,3,0,0,0-2.1-5.06,3,3,0,0,0-3,3,3,3,0,0,0,3,3Z"
                fill="#e9cd62" />
        </g>
    </g>
</svg>