<svg viewBox="0 0 310 310" xmlns="http://www.w3.org/2000/svg">
    <title>Cashew</title>
    <g data-name="Layer 2" id="Layer_2">
        <g data-name="Layer 1" id="Layer_1-2">
            <path
                d="M206.74,38.91a28.29,28.29,0,0,1-19,26.72c-1.38.32-2.7.9-4.09,1.08C163.35,69.28,144.8,82.28,134,99.44c-16,25.48,6.27,53.41,5.88,80.2-.41,27.42-26.56,49-53.38,46.78-27.88-2.29-48.87-27.53-55.7-53.16C21.66,139,30.4,99.78,49.72,70.56A135.73,135.73,0,0,1,162.08,10C181.47,10,206.74,13.74,206.74,38.91Z"
                fill="#e8a864" />
            <path
                d="M119.08,52.09A112.55,112.55,0,0,0,108.31,56,90.35,90.35,0,0,0,98.3,61,62.82,62.82,0,0,0,81.54,74.53,55.62,55.62,0,0,0,71,93.16a68.85,68.85,0,0,0-2.6,10.73c-.29,1.85-.52,3.73-.69,5.62s-.28,3.82-.36,5.78a45.1,45.1,0,0,1-1.73-23.52A46.83,46.83,0,0,1,76.18,69.93,50.81,50.81,0,0,1,95.89,56a56.75,56.75,0,0,1,11.45-3.27A52.87,52.87,0,0,1,113.2,52,36.07,36.07,0,0,1,119.08,52.09Z"
                fill="#ae7e4b" />
            <path
                d="M102.16,270.62a28.28,28.28,0,0,1,19.28-26.52,39.7,39.7,0,0,1,4.1-1c20.32-2.36,39-15.17,50-32.21,16.31-25.31-5.71-53.47-5-80.25.69-27.42,27.06-48.71,53.86-46.23,27.85,2.58,48.58,28,55.14,53.73,8.78,34.39-.36,73.49-20,102.5a135.72,135.72,0,0,1-113,59.39C127.13,299.79,101.9,295.79,102.16,270.62Z"
                fill="#e8a864" />
            <path
                d="M168.13,242.55c3.27-2.13,6.35-4.37,9.29-6.73a91.27,91.27,0,0,0,8.29-7.48,62.86,62.86,0,0,0,12.43-17.61,55.6,55.6,0,0,0,5-20.78,69.52,69.52,0,0,0-.42-11c-.23-1.86-.52-3.72-.87-5.6s-.78-3.75-1.23-5.65a45.06,45.06,0,0,1,8.07,22.16,46.86,46.86,0,0,1-4.17,23.88,51,51,0,0,1-15.17,18.78,56.42,56.42,0,0,1-10.12,6.27A55.06,55.06,0,0,1,173.8,241,37.12,37.12,0,0,1,168.13,242.55Z"
                fill="#ae7e4b" />
            <rect fill="none" height="310" width="310" />
        </g>
    </g>
</svg>