<svg viewBox="0 0 310 310" xmlns="http://www.w3.org/2000/svg">
    <title>Dairy Milk</title>
    <g data-name="Layer 2" id="Layer_2">
        <g data-name="Layer 1" id="Layer_1-2">
            <rect fill="#864426" height="45.76" transform="translate(-67.08 36.26) rotate(-26.62)"
                width="51.12" x="17.54" y="137.02" />
            <polygon fill="#b36430" points="10 150.9 55.7 128 50.91 137.77 20.7 152.92 10 150.9" />
            <polygon fill="#471202"
                points="30.5 191.81 35.29 182.03 65.51 166.88 76.2 168.9 30.5 191.81" />
            <polygon fill="#371202"
                points="20.68 152.92 35.28 182.04 30.5 191.81 10 150.9 20.68 152.92" />
            <polygon fill="#bd652d"
                points="50.91 137.77 65.51 166.88 76.19 168.91 55.69 128 50.91 137.77" />
            <rect fill="#864426" height="45.76" transform="translate(-51.97 54.31) rotate(-26.62)"
                width="51.12" x="63.24" y="114.12" />
            <polygon fill="#b36430"
                points="55.7 128 101.4 105.09 96.61 114.87 66.39 130.01 55.7 128" />
            <polygon fill="#471202"
                points="76.2 168.9 80.98 159.13 111.2 143.98 121.9 146 76.2 168.9" />
            <polygon fill="#371202"
                points="66.38 130.02 80.97 159.13 76.2 168.9 55.7 128 66.38 130.02" />
            <polygon fill="#bd652d"
                points="96.61 114.87 111.2 143.98 121.89 146 101.39 105.1 96.61 114.87" />
            <rect fill="#864426" height="45.76" transform="translate(-36.87 72.36) rotate(-26.62)"
                width="51.12" x="108.94" y="91.21" />
            <polygon fill="#b36430"
                points="101.4 105.09 147.09 82.19 142.31 91.96 112.09 107.11 101.4 105.09" />
            <polygon fill="#471202"
                points="121.9 146 126.68 136.22 156.9 121.08 167.6 123.09 121.9 146" />
            <polygon fill="#371202"
                points="112.08 107.11 126.67 136.23 121.9 146 101.4 105.09 112.08 107.11" />
            <polygon fill="#bd652d"
                points="142.31 91.96 156.9 121.08 167.59 123.1 147.09 82.19 142.31 91.96" />
            <rect fill="#864426" height="45.76" transform="translate(-21.76 90.41) rotate(-26.62)"
                width="51.12" x="154.64" y="68.31" />
            <polygon fill="#b36430"
                points="147.09 82.19 192.79 59.28 188.01 69.06 157.79 84.2 147.09 82.19" />
            <polygon fill="#471202"
                points="167.6 123.09 172.38 113.32 202.6 98.17 213.3 100.19 167.6 123.09" />
            <polygon fill="#371202"
                points="157.78 84.21 172.37 113.32 167.6 123.09 147.09 82.19 157.78 84.21" />
            <polygon fill="#bd652d"
                points="188.01 69.06 202.6 98.17 213.29 100.19 192.78 59.29 188.01 69.06" />
            <rect fill="#864426" height="45.76" transform="translate(-83.24 49.79) rotate(-26.62)"
                width="51.12" x="38.05" y="177.93" />
            <polygon fill="#b36430"
                points="30.5 191.81 76.2 168.9 71.42 178.68 41.2 193.82 30.5 191.81" />
            <polygon fill="#471202"
                points="51.01 232.71 55.79 222.94 86.01 207.79 96.7 209.81 51.01 232.71" />
            <polygon fill="#371202"
                points="41.19 193.83 55.78 222.94 51.01 232.71 30.5 191.81 41.19 193.83" />
            <polygon fill="#bd652d"
                points="71.42 178.68 86.01 207.79 96.69 209.81 76.19 168.91 71.42 178.68" />
            <rect fill="#864426" height="45.76" transform="translate(-68.13 67.83) rotate(-26.62)"
                width="51.12" x="83.74" y="155.03" />
            <polygon fill="#b36430"
                points="76.2 168.9 121.9 146 117.12 155.77 86.9 170.92 76.2 168.9" />
            <polygon fill="#471202"
                points="96.7 209.81 101.49 200.03 131.71 184.89 142.4 186.91 96.7 209.81" />
            <polygon fill="#371202"
                points="86.89 170.93 101.48 200.04 96.7 209.81 76.2 168.9 86.89 170.93" />
            <polygon fill="#bd652d"
                points="117.12 155.77 131.71 184.89 142.39 186.91 121.89 146 117.12 155.77" />
            <rect fill="#864426" height="45.76" transform="translate(-53.02 85.88) rotate(-26.62)"
                width="51.12" x="129.44" y="132.12" />
            <polygon fill="#b36430"
                points="121.9 146 167.6 123.09 162.81 132.87 132.59 148.02 121.9 146" />
            <polygon fill="#471202"
                points="142.4 186.91 147.19 177.13 177.41 161.98 188.1 164 142.4 186.91" />
            <polygon fill="#371202"
                points="132.58 148.02 147.18 177.13 142.4 186.91 121.9 146 132.58 148.02" />
            <polygon fill="#bd652d"
                points="162.81 132.87 177.41 161.98 188.09 164.01 167.59 123.1 162.81 132.87" />
            <rect fill="#864426" height="45.76" transform="translate(-37.91 103.93) rotate(-26.62)"
                width="51.12" x="175.14" y="109.22" />
            <polygon fill="#b36430"
                points="167.6 123.09 213.3 100.19 208.51 109.97 178.29 125.11 167.6 123.09" />
            <polygon fill="#471202"
                points="188.1 164 192.88 154.23 223.1 139.08 233.8 141.1 188.1 164" />
            <polygon fill="#371202"
                points="178.28 125.12 192.88 154.23 188.1 164 167.6 123.09 178.28 125.12" />
            <polygon fill="#bd652d"
                points="208.51 109.97 223.1 139.08 233.79 141.1 213.29 100.19 208.51 109.97" />
            <rect fill="#864426" height="45.76" transform="translate(-99.39 63.31) rotate(-26.62)"
                width="51.12" x="58.55" y="218.84" />
            <polygon fill="#b36430"
                points="51.01 232.71 96.7 209.81 91.92 219.59 61.7 234.73 51.01 232.71" />
            <polygon fill="#471202"
                points="71.51 273.62 76.29 263.85 106.51 248.7 117.21 250.72 71.51 273.62" />
            <polygon fill="#371202"
                points="61.69 234.74 76.28 263.85 71.51 273.62 51.01 232.71 61.69 234.74" />
            <polygon fill="#bd652d"
                points="91.92 219.59 106.51 248.7 117.2 250.72 96.69 209.81 91.92 219.59" />
            <rect fill="#864426" height="45.76" transform="translate(-84.28 81.36) rotate(-26.62)"
                width="51.12" x="104.25" y="195.93" />
            <polygon fill="#b36430"
                points="96.7 209.81 142.4 186.91 137.62 196.68 107.4 211.83 96.7 209.81" />
            <polygon fill="#471202"
                points="117.21 250.72 121.99 240.94 152.21 225.79 162.91 227.81 117.21 250.72" />
            <polygon fill="#371202"
                points="107.39 211.83 121.98 240.95 117.21 250.72 96.7 209.81 107.39 211.83" />
            <polygon fill="#bd652d"
                points="137.62 196.68 152.21 225.79 162.9 227.82 142.39 186.91 137.62 196.68" />
            <rect fill="#864426" height="45.76" transform="translate(-69.18 99.41) rotate(-26.62)"
                width="51.12" x="149.94" y="173.03" />
            <polygon fill="#b36430"
                points="142.4 186.91 188.1 164 183.32 173.78 153.1 188.92 142.4 186.91" />
            <polygon fill="#471202"
                points="162.91 227.81 167.69 218.04 197.91 202.89 208.6 204.91 162.91 227.81" />
            <polygon fill="#371202"
                points="153.09 188.93 167.68 218.04 162.91 227.81 142.4 186.91 153.09 188.93" />
            <polygon fill="#bd652d"
                points="183.32 173.78 197.91 202.89 208.59 204.91 188.09 164.01 183.32 173.78" />
            <rect fill="#864426" height="45.76" transform="translate(-54.07 117.45) rotate(-26.62)"
                width="51.12" x="195.64" y="150.12" />
            <polygon fill="#b36430"
                points="188.1 164 233.8 141.1 229.01 150.87 198.79 166.02 188.1 164" />
            <polygon fill="#471202"
                points="208.6 204.91 213.39 195.13 243.61 179.99 254.3 182 208.6 204.91" />
            <polygon fill="#371202"
                points="198.79 166.02 213.38 195.14 208.6 204.91 188.1 164 198.79 166.02" />
            <polygon fill="#bd652d"
                points="229.01 150.87 243.61 179.99 254.29 182.01 233.79 141.1 229.01 150.87" />
            <rect fill="#864426" height="45.76" transform="translate(-6.65 108.46) rotate(-26.62)"
                width="51.12" x="200.33" y="45.41" />
            <polygon fill="#b36430"
                points="192.79 59.28 238.49 36.38 233.71 46.15 203.49 61.3 192.79 59.28" />
            <polygon fill="#471202"
                points="213.3 100.19 218.08 90.41 248.3 75.27 258.99 77.29 213.3 100.19" />
            <polygon fill="#371202"
                points="203.48 61.3 218.07 90.42 213.3 100.19 192.79 59.28 203.48 61.3" />
            <polygon fill="#bd652d"
                points="233.71 46.15 248.3 75.27 258.98 77.29 238.48 36.38 233.71 46.15" />
            <rect fill="#864426" height="45.76" transform="translate(-22.81 121.98) rotate(-26.62)"
                width="51.12" x="220.84" y="86.31" />
            <polygon fill="#b36430"
                points="213.3 100.19 258.99 77.29 254.21 87.06 223.99 102.21 213.3 100.19" />
            <polygon fill="#471202"
                points="233.8 141.1 238.58 131.32 268.8 116.17 279.5 118.19 233.8 141.1" />
            <polygon fill="#371202"
                points="223.98 102.21 238.57 131.33 233.8 141.1 213.3 100.19 223.98 102.21" />
            <polygon fill="#bd652d"
                points="254.21 87.06 268.8 116.17 279.49 118.2 258.98 77.29 254.21 87.06" />
            <rect fill="#864426" height="45.76" transform="translate(-38.96 135.5) rotate(-26.62)"
                width="51.12" x="241.34" y="127.22" />
            <polygon fill="#b36430"
                points="233.8 141.1 279.5 118.19 274.71 127.97 244.49 143.12 233.8 141.1" />
            <polygon fill="#471202"
                points="254.3 182 259.09 172.23 289.31 157.08 300 159.1 254.3 182" />
            <polygon fill="#371202"
                points="244.48 143.12 259.08 172.23 254.3 182 233.8 141.1 244.48 143.12" />
            <polygon fill="#bd652d"
                points="274.71 127.97 289.31 157.08 299.99 159.1 279.49 118.2 274.71 127.97" />
            <rect fill="none" height="310" width="310" />
        </g>
    </g>
</svg>