<svg viewBox="0 0 310 310" xmlns="http://www.w3.org/2000/svg">
    <title>Grapes</title>
    <g data-name="Layer 2" id="Layer_2">
        <g data-name="Layer 1" id="Layer_1-2">
            <path
                d="M82.39,161.2C101.52,151.07,113,131.49,115.63,109c-17.83-6.89-37-6.78-53.45,2C43.05,121,31.54,140.62,28.94,163.16,46.77,170,65.9,169.93,82.39,161.2Z"
                fill="#108848" />
            <path
                d="M159,88.14c-.16,19.49-11,36.81-28,48.23-12.89-11.39-20.74-26.72-20.6-43.52.15-19.48,11-36.8,28-48.23C151.33,56,159.18,71.35,159,88.14Z"
                fill="#669940" />
            <circle cx="271.57" cy="233.36" fill="#662d91" r="28.43" stroke="#fff"
                stroke-miterlimit="10" stroke-width="0.43" />
            <circle cx="234.46" cy="236.95" fill="#573f6a" r="28.43" stroke="#fff"
                stroke-miterlimit="10" stroke-width="0.43" />
            <circle cx="269.22" cy="205.89" fill="#8557a7" r="28.43" stroke="#fff"
                stroke-miterlimit="10" stroke-width="0.43" />
            <circle cx="254.71" cy="177.74" fill="#573f6a" r="28.43" stroke="#fff"
                stroke-miterlimit="10" stroke-width="0.43" />
            <circle cx="230.18" cy="214.42" fill="#2d0e44" r="28.43" stroke="#fff"
                stroke-miterlimit="10" stroke-width="0.43" />
            <circle cx="163.81" cy="228.33" fill="#662d91" r="28.43" stroke="#fff"
                stroke-miterlimit="10" stroke-width="0.43" />
            <circle cx="194.83" cy="217.99" fill="#8557a7" r="28.43" stroke="#fff"
                stroke-miterlimit="10" stroke-width="0.43" />
            <circle cx="128.76" cy="160.84" fill="#4d226d" r="28.43" stroke="#fff"
                stroke-miterlimit="10" stroke-width="0.43" />
            <circle cx="181.45" cy="109.65" fill="#662d91" r="28.43" stroke="#fff"
                stroke-miterlimit="10" stroke-width="0.43" />
            <circle cx="119.68" cy="196.2" fill="#573f6a" r="28.43" stroke="#fff"
                stroke-miterlimit="10" stroke-width="0.43" />
            <circle cx="141.41" cy="187.43" fill="#816f8f" r="28.43" stroke="#fff"
                stroke-miterlimit="10" stroke-width="0.43" />
            <circle cx="220.67" cy="131.85" fill="#573f6a" r="28.43" stroke="#fff"
                stroke-miterlimit="10" stroke-width="0.43" />
            <circle cx="193.1" cy="143.91" fill="#8557a7" r="28.43" stroke="#fff"
                stroke-miterlimit="10" stroke-width="0.43" />
            <path
                d="M132.55,134.61a5.56,5.56,0,0,1-7.85-.75A92.77,92.77,0,0,0,93,109c-32-15.15-63.45-6.83-75.5-2.55A5.59,5.59,0,0,1,13.71,95.9l.42-.14a5.44,5.44,0,0,1-1.34-2.35,5.57,5.57,0,0,1,3.93-6.84c13.68-3.71,49.21-10.25,83.55,9.36a103.64,103.64,0,0,1,33.33,30.48,5.53,5.53,0,0,1,1,3.05,6.65,6.65,0,0,1-.07,1.09A5.57,5.57,0,0,1,132.55,134.61Z"
                fill="#8c6239" />
            <circle cx="147.01" cy="131.62" fill="#a381bd" r="28.43" stroke="#fff"
                stroke-miterlimit="10" stroke-width="0.43" />
            <circle cx="170.71" cy="180.09" fill="#662d91" r="28.43" stroke="#fff"
                stroke-miterlimit="10" stroke-width="0.43" />
            <circle cx="216.5" cy="175.82" fill="#c2abd3" r="28.43" stroke="#fff"
                stroke-miterlimit="10" stroke-width="0.43" />
            <rect fill="none" height="310" width="310" />
        </g>
    </g>
</svg>