<svg viewBox="0 0 310 310" xmlns="http://www.w3.org/2000/svg">
    <title>Kitkat</title>
    <g data-name="Layer 2" id="Layer_2">
        <g data-name="Layer 1" id="Layer_1-2">
            <rect fill="#864426" height="37.5" transform="translate(-28.59 57.19) rotate(-21.81)"
                width="252.34" x="7.93" y="84.04" />
            <polygon fill="#bd652d"
                points="244.27 38.5 238.18 46.75 248.1 71.53 258.2 73.31 244.27 38.5" />
            <polygon fill="#371202"
                points="18.59 134.65 28.5 159.42 23.93 167.07 10 132.26 18.59 134.65" />
            <polygon fill="#b36430"
                points="10 132.26 18.59 134.65 238.18 46.75 244.27 38.5 10 132.26" />
            <polygon fill="#471202"
                points="23.93 167.07 28.5 159.42 248.1 71.53 258.2 73.31 23.93 167.07" />
            <rect fill="#864426" height="37.5" transform="translate(-40.53 64.86) rotate(-21.81)"
                width="252.34" x="21.87" y="118.85" />
            <polygon fill="#bd652d"
                points="258.2 73.31 252.11 81.56 262.03 106.34 272.13 108.12 258.2 73.31" />
            <polygon fill="#371202"
                points="32.52 169.46 42.44 194.23 37.87 201.88 23.93 167.07 32.52 169.46" />
            <polygon fill="#b36430"
                points="23.93 167.07 32.52 169.46 252.11 81.56 258.2 73.31 23.93 167.07" />
            <polygon fill="#471202"
                points="37.87 201.88 42.44 194.23 262.03 106.34 272.13 108.12 37.87 201.88" />
            <rect fill="#864426" height="37.5" transform="translate(-52.47 72.53) rotate(-21.81)"
                width="252.34" x="35.8" y="153.66" />
            <polygon fill="#bd652d"
                points="272.13 108.12 266.05 116.38 275.96 141.15 286.07 142.93 272.13 108.12" />
            <polygon fill="#371202"
                points="46.45 204.27 56.37 229.04 51.8 236.69 37.87 201.88 46.45 204.27" />
            <polygon fill="#b36430"
                points="37.87 201.88 46.45 204.27 266.05 116.38 272.13 108.12 37.87 201.88" />
            <polygon fill="#471202"
                points="51.8 236.69 56.37 229.04 275.96 141.15 286.07 142.93 51.8 236.69" />
            <rect fill="#864426" height="37.5" transform="translate(-64.4 80.2) rotate(-21.81)"
                width="252.34" x="49.73" y="188.47" />
            <polygon fill="#bd652d"
                points="286.07 142.93 279.98 151.19 289.9 175.96 300 177.74 286.07 142.93" />
            <polygon fill="#371202"
                points="60.38 239.08 70.3 263.85 65.73 271.5 51.8 236.69 60.38 239.08" />
            <polygon fill="#b36430"
                points="51.8 236.69 60.38 239.08 279.98 151.19 286.07 142.93 51.8 236.69" />
            <polygon fill="#471202"
                points="65.73 271.5 70.3 263.85 289.9 175.96 300 177.74 65.73 271.5" />
            <rect fill="none" height="310" width="310" />
        </g>
    </g>
</svg>