<svg viewBox="0 0 310 310" xmlns="http://www.w3.org/2000/svg">
    <title>Mango</title>
    <g data-name="Layer 2" id="Layer_2">
        <g data-name="Layer 1" id="Layer_1-2">
            <path
                d="M225.67,14c21.51-2.37,42,7.35,56.84,24.53C271.63,54.25,255.75,64.91,237.21,67c-21.5,2.37-42-7.35-56.83-24.53C191.25,26.71,207.13,16.06,225.67,14Z"
                fill="#669940" />
            <path
                d="M162.68,139.23a5.68,5.68,0,0,1-5.4-9.43,94.24,94.24,0,0,0,21.25-35.07c11.39-34.12-.84-64.89-6.63-76.53a5.67,5.67,0,1,1,10.16-5c6.42,12.9,20,47,7.22,85.17a105.3,105.3,0,0,1-23.76,39.28A5.66,5.66,0,0,1,162.68,139.23Z"
                fill="#8c6239" />
            <path
                d="M57.13,216.86c1-.66,2-1.28,2.95-1.82a54.39,54.39,0,0,0,24.67-31.16c12.5-40.84,7.81-106.47,62-120.38,1.34-.34,2.75-.55,4.1-.84,28.58-6.23,55.18,10.62,72.22,31.1,46.62,56,.91,137.72-50,176.59-16.29,12.43-34.86,22.28-55,27-29.85,6.91-69.28,1.32-85.77-26.28-6.25-10.46-6.3-22.61-.71-33.6C36.78,227.21,47.84,222.89,57.13,216.86Z"
                fill="#ffe040" />
            <rect fill="none" height="310" width="310" />
        </g>
    </g>
</svg>