<svg viewBox="0 0 310 310" xmlns="http://www.w3.org/2000/svg">
    <title>Mix berries</title>
    <g data-name="Layer 2" id="Layer_2">
        <g data-name="Layer 1" id="Layer_1-2">
            <path
                d="M170.55,142.63C181.69,109.1,173.18,73,150.82,43.5,122,55.49,99.58,77.2,90,106.1c-11.14,33.53-2.63,69.62,19.73,99.14C138.5,193.24,160.94,171.53,170.55,142.63Z"
                fill="#108848" />
            <path
                d="M87.21,133.76c29.32,11.14,49.38,37.23,57.14,69.18-24.41,13.09-51.93,16.35-77.2,6.75C37.83,198.55,17.77,172.45,10,140.5,34.41,127.42,61.94,124.15,87.21,133.76Z"
                fill="#669940" />
            <circle cx="239.27" cy="156.1" fill="#ab0c57" r="22.61" stroke="#fff"
                stroke-miterlimit="10" stroke-width="2.74" />
            <circle cx="120.39" cy="203.34" fill="#c30055" r="22.61" stroke="#fff"
                stroke-miterlimit="10" stroke-width="2.74" />
            <circle cx="128.13" cy="182.78" fill="#c30055" r="22.61" stroke="#fff"
                stroke-miterlimit="10" stroke-width="2.74" />
            <circle cx="140.39" cy="212.32" fill="#c30055" r="22.61" stroke="#fff"
                stroke-miterlimit="10" stroke-width="2.74" />
            <circle cx="147.04" cy="150.72" fill="#c30055" r="22.61" stroke="#fff"
                stroke-miterlimit="10" stroke-width="2.74" />
            <circle cx="165.57" cy="213.12" fill="#c30055" r="22.61" stroke="#fff"
                stroke-miterlimit="10" stroke-width="2.74" />
            <circle cx="149.56" cy="181.89" fill="#c30055" r="22.61" stroke="#fff"
                stroke-miterlimit="10" stroke-width="2.74" />
            <circle cx="198.12" cy="214.23" fill="#c30055" r="22.61" stroke="#fff"
                stroke-miterlimit="10" stroke-width="2.74" />
            <circle cx="173.02" cy="126.33" fill="#c30055" r="22.61" stroke="#fff"
                stroke-miterlimit="10" stroke-width="2.74" />
            <circle cx="181.68" cy="187.31" fill="#c30055" r="22.61" stroke="#fff"
                stroke-miterlimit="10" stroke-width="2.74" />
            <circle cx="172.22" cy="151.51" fill="#c30055" r="22.61" stroke="#fff"
                stroke-miterlimit="10" stroke-width="2.74" />
            <circle cx="226.01" cy="132.12" fill="#ab0c57" r="22.61" stroke="#fff"
                stroke-miterlimit="10" stroke-width="2.74" />
            <circle cx="241.22" cy="188.53" fill="#ab0c57" r="22.61" stroke="#fff"
                stroke-miterlimit="10" stroke-width="2.74" />
            <circle cx="204.94" cy="112.13" fill="#c30055" r="22.61" stroke="#fff"
                stroke-miterlimit="10" stroke-width="2.74" />
            <circle cx="202.64" cy="130.63" fill="#c30055" r="22.61" stroke="#fff"
                stroke-miterlimit="10" stroke-width="2.74" />
            <circle cx="231.67" cy="209.78" fill="#c30055" r="22.61" stroke="#fff"
                stroke-miterlimit="10" stroke-width="2.74" />
            <circle cx="218.29" cy="182.73" fill="#c30055" r="22.61" stroke="#fff"
                stroke-miterlimit="10" stroke-width="2.74" />
            <circle cx="209.34" cy="159.18" fill="#c30055" r="22.61" stroke="#fff"
                stroke-miterlimit="10" stroke-width="2.74" />
            <circle cx="128.48" cy="214.34" fill="#403e45" r="12.38" stroke="#fff"
                stroke-miterlimit="10" stroke-width="1.5" />
            <circle cx="64.47" cy="242.75" fill="#444261" r="12.38" stroke="#fff"
                stroke-miterlimit="10" stroke-width="1.5" />
            <circle cx="68.26" cy="231.34" fill="#444261" r="12.38" stroke="#fff"
                stroke-miterlimit="10" stroke-width="1.5" />
            <circle cx="75.6" cy="247.23" fill="#444261" r="12.38" stroke="#fff"
                stroke-miterlimit="10" stroke-width="1.5" />
            <circle cx="77.91" cy="213.39" fill="#444261" r="12.38" stroke="#fff"
                stroke-miterlimit="10" stroke-width="1.5" />
            <circle cx="89.4" cy="247.13" fill="#444261" r="12.38" stroke="#fff"
                stroke-miterlimit="10" stroke-width="1.5" />
            <circle cx="79.96" cy="230.39" fill="#444261" r="12.38" stroke="#fff"
                stroke-miterlimit="10" stroke-width="1.5" />
            <circle cx="107.23" cy="247.03" fill="#444261" r="12.38" stroke="#fff"
                stroke-miterlimit="10" stroke-width="1.5" />
            <circle cx="91.59" cy="199.49" fill="#444261" r="12.38" stroke="#fff"
                stroke-miterlimit="10" stroke-width="1.5" />
            <circle cx="97.65" cy="232.66" fill="#444261" r="12.38" stroke="#fff"
                stroke-miterlimit="10" stroke-width="1.5" />
            <circle cx="91.7" cy="213.28" fill="#444261" r="12.38" stroke="#fff"
                stroke-miterlimit="10" stroke-width="1.5" />
            <circle cx="120.71" cy="201.5" fill="#403e45" r="12.38" stroke="#fff"
                stroke-miterlimit="10" stroke-width="1.5" />
            <circle cx="130.25" cy="232.03" fill="#403e45" r="12.38" stroke="#fff"
                stroke-miterlimit="10" stroke-width="1.5" />
            <circle cx="108.75" cy="191.03" fill="#444261" r="12.38" stroke="#fff"
                stroke-miterlimit="10" stroke-width="1.5" />
            <circle cx="107.89" cy="201.19" fill="#444261" r="12.38" stroke="#fff"
                stroke-miterlimit="10" stroke-width="1.5" />
            <circle cx="125.49" cy="243.86" fill="#444261" r="12.38" stroke="#fff"
                stroke-miterlimit="10" stroke-width="1.5" />
            <circle cx="117.58" cy="229.36" fill="#444261" r="12.38" stroke="#fff"
                stroke-miterlimit="10" stroke-width="1.5" />
            <circle cx="112.17" cy="216.67" fill="#444261" r="12.38" stroke="#fff"
                stroke-miterlimit="10" stroke-width="1.5" />
            <circle cx="175.41" cy="238.64" fill="#464ca6" r="15.04" />
            <polygon fill="#403488"
                points="175.87 234.05 174.01 233.1 172.18 234.08 172.51 232.02 171.01 230.58 173.07 230.26 173.98 228.39 174.91 230.25 176.98 230.53 175.5 232 175.87 234.05" />
            <circle cx="190.65" cy="251.47" fill="#556bb8" r="15.04" />
            <polygon fill="#403488"
                points="184.69 248.89 182.84 247.93 181 248.92 181.33 246.86 179.83 245.41 181.89 245.1 182.8 243.22 183.74 245.08 185.8 245.37 184.32 246.83 184.69 248.89" />
            <circle cx="201.47" cy="238.64" fill="#314e79" r="15.04" />
            <polygon fill="#23256e"
                points="208.75 235.25 206.89 234.3 205.06 235.28 205.39 233.23 203.88 231.78 205.95 231.47 206.85 229.59 207.79 231.45 209.86 231.73 208.38 233.2 208.75 235.25" />
            <path
                d="M284.36,198.54c-7,.85-13.66-2.23-18.53-7.75a20.69,20.69,0,0,1,14.59-9.39c7-.85,13.67,2.23,18.54,7.75A20.71,20.71,0,0,1,284.36,198.54Z"
                fill="#669940" />
            <path
                d="M254.23,173.54c6.88,1.41,12.26,6.46,15.12,13.24A20.69,20.69,0,0,1,252.53,191c-6.88-1.41-12.25-6.45-15.12-13.23A20.74,20.74,0,0,1,254.23,173.54Z"
                fill="#669940" />
            <path
                d="M263,173.1c2.21-6.66,7.86-11.39,14.94-13.43a20.75,20.75,0,0,1,2.23,17.21c-2.22,6.66-7.87,11.39-14.94,13.43A20.67,20.67,0,0,1,263,173.1Z"
                fill="#669940" />
            <path
                d="M253.83,184.31c-14.16.26-29.62,10.8-24.56,27,5.4,17.25,12.18,51.2,38.7,42.06,12.66-4.37,18.74-18.08,27.24-27.33s4.79-24.43-4.82-31.33c-9.43-6.76-22.16-9.25-33.5-10.28A28.27,28.27,0,0,0,253.83,184.31Z"
                fill="#d9240c" />
            <path
                d="M242.13,205.56a2.9,2.9,0,0,0,2-.82,2.82,2.82,0,0,0,.82-2,2.85,2.85,0,0,0-2.81-2.81,2.89,2.89,0,0,0-2,.83,2.83,2.83,0,0,0-.83,2,2.87,2.87,0,0,0,2.81,2.81Z"
                fill="#e9cd62" />
            <path
                d="M258.4,198.87a2.89,2.89,0,0,0,2-.83,2.83,2.83,0,0,0,.83-2,2.81,2.81,0,0,0-4.8-2,2.82,2.82,0,0,0-.82,2,2.85,2.85,0,0,0,2.81,2.81Z"
                fill="#e9cd62" />
            <path
                d="M282.31,208.91a2.8,2.8,0,0,0,2.81-2.81,2.87,2.87,0,0,0-2.81-2.81,2.9,2.9,0,0,0-2,.82,2.81,2.81,0,0,0,2,4.8Z"
                fill="#e9cd62" />
            <path
                d="M265.57,213.21a2.8,2.8,0,0,0,2.81-2.81,2.87,2.87,0,0,0-2.81-2.81,2.91,2.91,0,0,0-2,.83,2.81,2.81,0,0,0,2,4.79Z"
                fill="#e9cd62" />
            <path
                d="M269.32,205.49a2.89,2.89,0,0,0,2-.83,2.83,2.83,0,0,0,.83-2,2.86,2.86,0,0,0-2.81-2.81,2.9,2.9,0,0,0-2,.82,2.82,2.82,0,0,0-.82,2,2.85,2.85,0,0,0,2.81,2.81Z"
                fill="#e9cd62" />
            <path
                d="M248.35,219a2.9,2.9,0,0,0,2-.82,2.81,2.81,0,0,0-2-4.8,2.91,2.91,0,0,0-2,.83,2.81,2.81,0,0,0,2,4.79Z"
                fill="#e9cd62" />
            <path d="M256.48,234.26a3,3,0,0,0,2-.82,2.81,2.81,0,1,0-2,.82Z" fill="#e9cd62" />
            <path d="M274.66,225.17a2.81,2.81,0,1,0-2.81-2.81,2.88,2.88,0,0,0,2.81,2.81Z"
                fill="#e9cd62" />
            <path
                d="M269.4,239.52a2.81,2.81,0,1,0-2-4.8,2.82,2.82,0,0,0-.82,2,2.85,2.85,0,0,0,2.81,2.81Z"
                fill="#e9cd62" />
            <path
                d="M257.92,246.69a2.81,2.81,0,1,0,0-5.62,2.91,2.91,0,0,0-2,.83,2.82,2.82,0,0,0-.82,2,2.85,2.85,0,0,0,2.81,2.81Z"
                fill="#e9cd62" />
            <path
                d="M244.53,233.3a2.81,2.81,0,0,0,0-5.62,2.93,2.93,0,0,0-2,.82,2.82,2.82,0,0,0-.82,2,2.85,2.85,0,0,0,2.81,2.81Z"
                fill="#e9cd62" />
            <path
                d="M261.26,222.78a2.88,2.88,0,0,0,2-.82,2.82,2.82,0,0,0,.82-2,2.81,2.81,0,0,0-4.79-2,2.82,2.82,0,0,0-.82,2,2.85,2.85,0,0,0,2.8,2.81Z"
                fill="#e9cd62" />
            <path
                d="M289,219.91a2.88,2.88,0,0,0,2-.82,2.82,2.82,0,0,0,.82-2,2.81,2.81,0,1,0-2.81,2.81Z"
                fill="#e9cd62" />
            <rect fill="none" height="310" width="310" />
        </g>
    </g>
</svg>