<svg viewBox="0 0 310 310" xmlns="http://www.w3.org/2000/svg">
    <title>Nuts</title>
    <g data-name="Layer 2" id="Layer_2">
        <g data-name="Layer 1" id="Layer_1-2">
            <path
                d="M207,258.67a111.93,111.93,0,0,1-13.79-25.2c-15-37.72-13.35-76.95-4.69-116.26.94-4.1,40.39,12.44,44,14.1C261.59,144.86,281,173,288.45,203.47c4.78,19.49,7.56,44.9-3.69,63C265.53,297.36,224.08,281.66,207,258.67Z"
                fill="#c4721a" stroke="#774004" stroke-miterlimit="10" stroke-width="0.31" />
            <path
                d="M237.89,260.82c-14-21-27.13-43.12-34.49-67.44a139.88,139.88,0,0,1-4.71-21.32c-.13-.93-2.85-1.05-2.75-.35,3.52,25.42,14.45,49,27.58,70.79,3.74,6.2,7.66,12.28,11.68,18.3.48.72,3.11.64,2.69,0Z"
                fill="#774004" stroke="#774004" stroke-miterlimit="10" stroke-width="0.85" />
            <path
                d="M250.34,247.44,225.67,195.5c-.37-.78-3.06-.79-2.7,0l24.67,51.95c.37.78,3.06.79,2.7,0Z"
                fill="#774004" stroke="#774004" stroke-miterlimit="10" stroke-width="0.85" />
            <path
                d="M271.43,233.56a185.41,185.41,0,0,0-31.14-64,182.88,182.88,0,0,0-13.16-15.59c-.54-.56-3.22-.51-2.46.3a184.69,184.69,0,0,1,37.87,60.13,186.8,186.8,0,0,1,6.2,19.16c.21.79,2.94.94,2.69,0Z"
                fill="#774004" stroke="#774004" stroke-miterlimit="10" stroke-width="0.85" />
            <path
                d="M211.29,68a59.62,59.62,0,0,1,3.89-13.89C222.9,35.25,236.73,21.47,253,10.05c1.7-1.17,9.39,18.27,10,20.09,5.21,14.83,2.2,31.71-5.59,45.36-5,8.74-12.65,19-22.56,21.76C217.9,102,209.25,82.2,211.29,68Z"
                fill="#cc5c43" stroke="#602316" stroke-miterlimit="10" stroke-width="0.42" />
            <path
                d="M150.63,293.71a59.13,59.13,0,0,1-14.31,1.8c-20.38.2-38.45-7.21-55.26-17.73-1.74-1.11,13.2-15.74,14.63-17,11.65-10.55,28.38-14.32,44-12.43,10,1.2,22.39,4.3,28.8,12.36C179.42,274.43,164.51,290.08,150.63,293.71Z"
                fill="#cc5c43" stroke="#602316" stroke-miterlimit="10" stroke-width="0.42" />
            <path
                d="M166.77,35.88a.41.41,0,0,1-.19,0c-10.56-1.92-19.08-9.4-21.07-20.14-.34-1.83,8.33-.51,9.64-.08a17.86,17.86,0,0,1,10.39,8.88,15.79,15.79,0,0,1,1.55,6.62,28.64,28.64,0,0,1-.11,4.44.41.41,0,0,1-.11.26Z"
                fill="#812511" />
            <path
                d="M286.93,118.21a.32.32,0,0,1-.14,0C279,116,273.14,109.79,272.4,101.6c-.13-1.4,6.28.2,7.23.61a13.47,13.47,0,0,1,7.18,7.39,12,12,0,0,1,.69,5.07,20.47,20.47,0,0,1-.39,3.32.29.29,0,0,1-.1.19S287,118.2,286.93,118.21Z"
                fill="#812511" />
            <path
                d="M205.62,297.11a.73.73,0,0,1-.09.08c-5.85,3.71-13.14,3.89-18.79-.32-1-.71,3.72-3.88,4.53-4.25a11.48,11.48,0,0,1,8.8-.35,10.21,10.21,0,0,1,3.63,2.46,18.4,18.4,0,0,1,1.89,2.15.25.25,0,0,1,.06.17A.09.09,0,0,1,205.62,297.11Z"
                fill="#812511" />
            <path
                d="M198.82,99.38a.59.59,0,0,1-.22,0c-11.91-3.8-20.63-13.7-21.32-26.4-.12-2.17,9.69.65,11.14,1.34A20.85,20.85,0,0,1,199.1,86.08a18.25,18.25,0,0,1,.79,7.87,31.39,31.39,0,0,1-.79,5.11.37.37,0,0,1-.16.28A.19.19,0,0,1,198.82,99.38Z"
                fill="#c2c293" />
            <path
                d="M77,252.69a1.66,1.66,0,0,1-.22,0C64.4,253,53,246.61,48.26,235c-.81-2,9.27-2.54,10.85-2.36a20.57,20.57,0,0,1,13.81,7.56,18.19,18.19,0,0,1,3.3,7.1,31.79,31.79,0,0,1,.92,5,.37.37,0,0,1-.06.31A.2.2,0,0,1,77,252.69Z"
                fill="#c2c293" />
            <path
                d="M167.88,65.48A23.71,23.71,0,0,1,152,87.87a32.7,32.7,0,0,1-3.43.9c-17,2.16-32.56,13.06-41.61,27.44-13.45,21.35,5.25,44.76,4.92,67.21-.34,23-22.26,41.06-44.73,39.21-23.37-1.92-41-23.08-46.69-44.55-7.66-28.74-.33-61.59,15.86-86.08a113.75,113.75,0,0,1,94.17-50.75C146.71,41.25,167.88,44.38,167.88,65.48Z"
                fill="#e8a864" />
            <path
                d="M94.41,76.52c-3.12,1-6.12,2.08-9,3.31A76.9,76.9,0,0,0,77,84,52.78,52.78,0,0,0,63,95.33a46.55,46.55,0,0,0-8.8,15.61,57.66,57.66,0,0,0-2.18,9c-.24,1.55-.44,3.12-.58,4.71s-.23,3.2-.3,4.84a37.87,37.87,0,0,1-1.45-19.71,39.27,39.27,0,0,1,8.82-18.31A42.7,42.7,0,0,1,75,79.79a47.19,47.19,0,0,1,9.59-2.74,45.21,45.21,0,0,1,4.92-.58A31.08,31.08,0,0,1,94.41,76.52Z"
                fill="#ae7e4b" />
            <rect fill="none" height="310" width="310" />
        </g>
    </g>
</svg>