<svg viewBox="0 0 310 310" xmlns="http://www.w3.org/2000/svg">
    <title>Orange</title>
    <g data-name="Layer 2" id="Layer_2">
        <g data-name="Layer 1" id="Layer_1-2">
            <circle cx="157.66" cy="183.46" fill="#f4901c" r="116.54" />
            <path
                d="M122.2,50c4.49-13.52,1.07-28.06-8-40C102.64,14.84,93.6,23.59,89.73,35.23c-4.49,13.52-1.07,28.06,8,40C109.29,70.36,118.33,61.61,122.2,50Z"
                fill="#108848" />
            <path
                d="M51,80.15c10.33-7.28,23.57-8.11,36-3.5-1.12,11.1-6.24,21-15.14,27.32-10.33,7.29-23.57,8.11-36,3.5C36.93,96.37,42,86.43,51,80.15Z"
                fill="#669940" />
            <path
                d="M106.08,93.62a1.79,1.79,0,0,1-3.42-.18A29.83,29.83,0,0,0,97,81.82C89.89,73,79.64,71,75.57,70.51A1.79,1.79,0,1,1,76,67c4.52.5,15.88,2.74,23.81,12.63a33.21,33.21,0,0,1,6.36,13A1.79,1.79,0,0,1,106.08,93.62Z"
                fill="#603813" stroke="#603813" stroke-miterlimit="10" stroke-width="4.42" />
            <ellipse cx="106.38" cy="93.24" fill="#603813" rx="13.26" ry="5.25" stroke="#603813"
                stroke-miterlimit="10" stroke-width="4.42"
                transform="translate(-34.43 79.71) rotate(-35.74)" />
            <rect fill="none" height="310" width="310" />
        </g>
    </g>
</svg>