<svg viewBox="0 0 111.03 57.37" xmlns="http://www.w3.org/2000/svg">
    <title>Orea</title>
    <g data-name="Layer 2" id="Layer_2">
        <g data-name="Layer 1" id="Layer_1-2">
            <ellipse cx="39.5" cy="39.87" fill="#271500" rx="39.5" ry="17.5" />
            <ellipse cx="39.5" cy="29.87" fill="#271500" rx="39.5" ry="17.5" />
            <path
                d="M39.5,51.37C21,51.37.68,43.43,2.07,35.47c5.27,6.92,20,11.9,37.43,11.9s32.16-5,37.43-11.9C78.32,43.43,58.05,51.37,39.5,51.37Z"
                fill="#e5ded6" />
            <path
                d="M79,29.87c0,9.66-17.68,17.5-39.5,17.5S0,39.53,0,29.87a7.63,7.63,0,0,1,.15-1.5c1.71,9,18.67,16,39.35,16s37.64-7,39.35-16A7.63,7.63,0,0,1,79,29.87Z"
                fill="#1e1c1e" />
            <path
                d="M79,39.87c0,9.66-17.68,17.5-39.5,17.5S0,49.53,0,39.87a6.63,6.63,0,0,1,.07-1c1.16,9.19,18.37,16.5,39.43,16.5s38.27-7.31,39.43-16.5A6.63,6.63,0,0,1,79,39.87Z"
                fill="#1e1c1e" />
            <ellipse cx="70.31" cy="32.37" fill="#271500" rx="17.5" ry="39.5"
                transform="translate(10.43 81.41) rotate(-64.04)" />
            <ellipse cx="74.69" cy="23.38" fill="#271500" rx="17.5" ry="39.5"
                transform="translate(20.97 80.3) rotate(-64.04)" />
            <path
                d="M65.28,42.71C48.6,34.59,33.85,18.58,38.58,12,40.29,20.56,51.38,31.5,67,39.11s31.09,9.6,38.86,5.69C103.66,52.57,82,50.83,65.28,42.71Z"
                fill="#e5ded6" />
            <path
                d="M110.2,40.67c-4.23,8.69-23.55,8-43.17-1.56S35,14.77,39.18,6.09A7.2,7.2,0,0,1,40,4.8c-2.39,8.81,9.78,22.56,28.37,31.62s36.92,10.14,42.38,2.84A7,7,0,0,1,110.2,40.67Z"
                fill="#1e1c1e" />
            <path
                d="M105.82,49.66c-4.22,8.69-23.55,8-43.17-1.56s-32.08-24.34-27.85-33a6.16,6.16,0,0,1,.5-.87c-3,8.77,9.29,22.88,28.23,32.1s37.6,10.18,42.67,2.42A6.26,6.26,0,0,1,105.82,49.66Z"
                fill="#1e1c1e" />
        </g>
    </g>
</svg>