<svg viewBox="0 0 609.38 529.24" xmlns="http://www.w3.org/2000/svg">
    <title>Peanuts</title>
    <g data-name="Layer 2" id="Layer_2">
        <g data-name="Layer 1" id="Layer_1-2">
            <path
                d="M322.67,436.33a110.18,110.18,0,0,1,3.94-26.5c9.86-36.54,32.13-65.14,59.37-89.94,2.86-2.56,21.54,31.47,23.14,34.68,13,26.11,11.42,57.91.24,84.88-7.16,17.26-18.91,37.88-36.52,45.31C342.74,497.45,322.22,463,322.67,436.33Z"
                fill="#cc5c43" stroke="#602316" stroke-miterlimit="10" stroke-width="0.77" />
            <path
                d="M390.72,409.73a110.67,110.67,0,0,1,25.12-9.3c36.78-8.95,72.57-3.18,107.42,8.75,3.62,1.28-17.23,34-19.27,37-16.61,24-45.27,37.88-74.29,41.06-18.57,2-42.3,1.66-57.29-10.21C346.8,456.74,367.16,422.15,390.72,409.73Z"
                fill="#cc5c43" stroke="#602316" stroke-miterlimit="10" stroke-width="0.77" />
            <path
                d="M213.57,511.46c3-5.19,5.36-9.5-2.68-6.56.9-6.61-5.57,3.48.68,3.44C214.43,506.19,218.58,510.37,213.57,511.46Z"
                fill="#f5c072" />
            <path
                d="M595.46,51.84c25.81,42,10.3,126.34-3.07,167.4-12.79,39.27-40.31,72.43-79.4,87.36-47.32,18.07-90.18-7.31-136.87,2.34-69.63,14.39-55,94-79.39,142.62-11.81,23.49-30.58,42.64-53.25,55.81-45.56,26.47-103.81,28.26-152.28,8.88-26.29-10.51-73.44-27-86.47-53.91C-3.66,445,1.55,420.09,2.16,401.61c2.79-85.24,33.67-180.34,131.69-189,56.9-5,110.45,24.74,148.61-35.15,14-21.91,20.63-47.52,28-72.42q38-127.74,169.36-100.24C514.76,12.08,575.12,18.71,595.46,51.84Z"
                fill="#e0862b" />
            <path
                d="M23.05,427.37A642.37,642.37,0,0,1,49.44,359c8.71-19.06,18-38.32,31.9-54.24,25-28.73,62.07-38.08,98.11-44.42,36.63-6.45,75.75-10.68,107.27-32.19,32-21.8,51.33-56.67,71.52-88.63,22.41-35.49,51-73.3,94.33-82.85.82-.18,2.54-6.07,2.88-6.93s1.95-6.8,2.75-7c-40.51,8.94-68.54,43-90.06,76.16-22,33.89-41.53,72-75.79,95.33C259,237,217.51,240.41,179,247.54c-18.84,3.48-37.79,7.81-55.23,16A113.47,113.47,0,0,0,78.32,302c-13.84,19.88-23.52,42.78-32.9,65-10.22,24.21-19.7,48.74-27.84,73.74,1.11-3.4,4.07-9.08,5.47-13.39Z"
                fill="#f5c072" />
            <path
                d="M95,466.76c15.89-33.6,32.8-66.29,53.56-97.18,2.45-3.65-3.61,4.59.13-.21.77-1,1.54-2,2.32-2.95q1.86-2.34,3.77-4.64,4.91-5.89,10.16-11.49a214,214,0,0,1,18.7-17.68,172.24,172.24,0,0,1,45.19-27.44c20-8.16,41.61-12,61.29-21.16s35.15-24,50.41-38.89c31.32-30.55,60.82-62.76,89.33-95.93,29.3-34.09,59.75-68.9,100.52-89.46,1.64-.83,3.43-4.51,4.52-6s2.75-5.24,4.4-6.07c-38,19.18-67.19,50.86-94.67,82.66-30.37,35.14-61.26,69.6-94.51,102.07-16.16,15.78-32.61,31.48-53.57,40.67s-43.55,13-64.32,22.4c-34.18,15.4-60.19,42.15-82.22,71.83-25.76,34.7-45.5,72.55-63.93,111.53,2.09-4.42,6.81-7.61,8.92-12.07Z"
                fill="#f5c072" />
            <path
                d="M137.85,513.64c20.84,6.13,41.76-3.39,57.33-17,16.28-14.28,30-32.3,43.36-49.27A281.41,281.41,0,0,0,271,395.7c7.59-15.68,14.32-31.79,22.58-47.15,8-14.82,17.53-29.13,30.6-39.94,15.83-13.1,35.3-18.46,55.25-21.57,21.27-3.32,42.9-5,62.93-13.5,17.5-7.46,33-18.88,46.58-32.1,15.56-15.14,28.75-32.52,41.06-50.35,13.31-19.29,28.35-39.24,36-61.61.6-1.78-.59-5.58-.81-7.45s-1.56-5.65-.95-7.44c-6.81,20-19.75,37.64-31.47,55-11,16.27-22.53,32.25-35.75,46.78-12.82,14.08-27.32,26.86-44,36.17-18.19,10.15-37.91,14.34-58.37,17.18-21.29,3-43.44,5.43-62.19,16.83-14.26,8.68-25.22,21.53-34,35.58-9.29,14.91-16.35,31.06-23.7,47-8.12,17.55-16.88,34.52-28.17,50.28-7.22,10.09-15.06,19.72-23,29.23-7.72,9.22-15.33,18.63-23.84,27.14-16.55,16.54-39.59,30.06-63.65,23,.36.11.72,6.79.8,7.46s.31,7.25.95,7.44Z"
                fill="#f5c072" />
            <path
                d="M29.87,350.84c-.86,3.64-1.43-9.85-4.63-3.08-6.73,3.9-5.14,12-4,3.06C27.78,352.14,22.5,354.72,29.87,350.84Z"
                fill="#f5c072" />
            <path
                d="M59.77,308c5.65-.8,5-11,.28-12.93-15.21-2.63-5.67,7.62-.53,10C62.5,301.7,60.15,302,59.77,308Z"
                fill="#f5c072" />
            <path
                d="M98.88,257.66c13.3-4.71,14-15,5.74-10.76-5.56,1.89-9.17,10.55,1,13.14C101.28,251.48,104.51,252.35,98.88,257.66Z"
                fill="#f5c072" />
            <path
                d="M175.93,232.77c-.11,2.24,4.76-8.7-3.45-6.45-11.11,1.48-4.52,13.68-2.87,6.38C170.35,237.07,171.06,231.75,175.93,232.77Z"
                fill="#f5c072" />
            <path
                d="M245.35,230.53c4.05,1.86,2.19-10.06-3.77-13.43-5.17-1.83-7.12,8.75,7.62,11.4C240.64,225,245,232.52,245.35,230.53Z"
                fill="#f5c072" />
            <path
                d="M303.11,190c11.85,1.9,5.07-6.73-1.58-10.47-5,6.89-.77,14.83,3.82,10.06C309,192.42,300.85,187.25,303.11,190Z"
                fill="#f5c072" />
            <path
                d="M344.16,138.11c-1.26-2.5-1.25-7.43-9.35-10.13-7.81-1-5.59,8.52,8.35,12.86C340.7,134.47,337.2,134.84,344.16,138.11Z"
                fill="#f5c072" />
            <path
                d="M380.73,75.16c11.31-3.82,9.84-11.89,3.37-7.69-9.6-5.29-5.85,1.11.63,3.31C379.57,71.22,380.43,76.54,380.73,75.16Z"
                fill="#f5c072" />
            <path
                d="M490.91,46.7c-5.06,6,3.9,5.92,4.86,8.83-11.07.85-13.63-4-7.5-1.83C492.06,50,494.91,57,484.4,53c4.69-1.86,6.33,6.33,1,2.59,10.33-1.46,3.37,7.76,7.44-2.44,2,2.58,8.44,3.9,2.36,3.85,6.53-.33-.78,4.66-1.82-7,9.64,7.57,1.6,2.12,6,3.16,2.07-.12,3.44-9.27,5.06-5.19-1.92-3.19.23,4.42-11.13-3.25.83-3.05-3.66-1.43,1.22-1.79-.13,8.49.68.94,1.1-.6C493.61,48.74,492.22,42.73,490.91,46.7Z"
                fill="#f5c072" />
            <path
                d="M445.58,97.82c2.6,2.51-3-7.56-2.93-2.42-5.46,2.46-9.41,10.47.16,5.34C447.07,106.39,440.08,104.32,445.58,97.82Z"
                fill="#f5c072" />
            <path
                d="M394.31,154.22c11.93-.93,3.11-11.87-4.4-11.2-6.81,7.61,3.35,14,2.8,14.62C394,161.15,395.52,154.18,394.31,154.22Z"
                fill="#f5c072" />
            <path
                d="M327.93,224.39c2.28,6.65,4.42-3.25-3.14-.14-9-2.82-8.39,6.56-2.37,11.1C320.07,231.89,324.28,231,327.93,224.39Z"
                fill="#f5c072" />
            <path
                d="M268.12,278.39c5.58-3.58-.36-14.59-3.68-15.8-10.18,2-8.66,17.13.07,11.08C266.74,278.27,267.56,277.19,268.12,278.39Z"
                fill="#f5c072" />
            <path
                d="M204.14,290.58c4.14,3.79,3.63-7.79,5.43-10.1-13.28-2.47-10.43,10.15-6,12.91C209,285.56,204.09,294.45,204.14,290.58Z"
                fill="#f5c072" />
            <path
                d="M168.16,310.93c4.65,4.29,7.4-10.07-.34-14.91-8.63,6.39-1.84,13.68,1.21,18.72C173.22,306.63,171.77,309.3,168.16,310.93Z"
                fill="#f5c072" />
            <path
                d="M102,351.27c16.44-.52,4.66-14.68,8.39-7-15.8-1.44-5.5,8.94-3.54,10.71C110.1,348.43,109,347,102,351.27Z"
                fill="#f5c072" />
            <path
                d="M84.07,415.59c6.14-5.49,11-9.86-2-12.42-6.65-.38,1.6,13.05,8.06,4.26C90.41,409.39,88.93,411.79,84.07,415.59Z"
                fill="#f5c072" />
            <path
                d="M69.05,465c6.12-5.7,1.49-16.2-4.62-11.54-3.68-1.44-5.92,14.66,4.94,14C66.81,462.63,64,461.53,69.05,465Z"
                fill="#f5c072" />
            <path
                d="M120.93,473.67c11.95,6.65,12.63-11.77-1.46-3,2.26,1.62-5.21,12.6,6.88,10.2C128.61,474.64,124.66,476,120.93,473.67Z"
                fill="#f5c072" />
            <path
                d="M160.7,445.47c8.87-.74,12.88-10.33,6.39-8.09-11.38-6.34-12,7.77-.59,6.19C161.76,446.74,161.55,445.86,160.7,445.47Z"
                fill="#f5c072" />
            <path
                d="M200.79,398.2c-8.4-2.75-3.76-3.62-7.4-1.09.91-1.6-3-3-7.83,3.61-2.92-1.81,2.64,3.59-2.17-.45-.31-1.46,7.64.15,10.86-2.24C182.11,401.45,188,410.29,193,402c-1.09,3.74,3.95,6.37-.84,7.59,2.18-1.1-.85-7.13-1.07-7.42,5.68-.51,4.19,9.34,7,1.78,1.45,4.52-.9.2,3.27-2.86-4.72,4.74,3.4-4.81-2.71.83,6.24-2.66-5,2.62,3.77-5.28-3-.58-3.21-1.65-6.68-4.42C197.66,395.84,198.52,397,200.79,398.2Z"
                fill="#f5c072" />
            <path
                d="M165.68,393.45c5.93,2.39,3.48-12.21,6.28-6.16-16.37-1.57-14.43,9.2-6.86,1.44C168.62,390.2,162,391.67,165.68,393.45Z"
                fill="#f5c072" />
            <path
                d="M237.89,351c4.81-10.32,10.12-13.34,2.91-14.68-9.59,5.21-4.61,8.9-3.76,12.88C237.33,349.37,242.38,343.14,237.89,351Z"
                fill="#f5c072" />
            <path
                d="M234.06,383.66c9.94-.35,12.76-11.64,4-15.57-11.66,8.93-6.83,17.1-3.29,16.67C234.2,387.53,235.57,388,234.06,383.66Z"
                fill="#f5c072" />
            <path
                d="M183.1,368.1c1.19.91,2,5,8.39,5.43-6.77-.16,5.07-9.44-6.26-7.55,8.93,1.86,4.26-.35,10.5,5.54,3.17-7.66-6.35-12.21.51-2.89-.73-10.25-3.84-4-8.94-12.17,8,2.8,6.07,8.5,7.67,8-11.76-1.05-11.42-1.52-6.88-6.13-1.57,7-1,2.21-1.57-.33-11.29,9.17-9.31,8.62-9.37,7.27,6.49,2.69,7.45,7.82,14.08,4.74C190.32,373.71,184.12,367.5,183.1,368.1Z"
                fill="#f5c072" />
            <path
                d="M219.51,431.87c-.06-2.21.41-15.5-1.92-11.45-5.75,6.61-4.91,9.74,1.34,14.44C216.71,429.56,212.39,431.35,219.51,431.87Z"
                fill="#f5c072" />
            <path
                d="M273.89,333.71c2.11-3.26,2.78-8-2.6-5.54-8.23-3.07-8.67,11.34,6,3.38C272.67,333,274.75,328.56,273.89,333.71Z"
                fill="#f5c072" />
            <path
                d="M340.13,264.17c2.68,8.88,5.53-4.65,3.67-4.75-6.2,2.29-5.11,9.52-9.21,5.14C345.06,265.11,338.18,264.77,340.13,264.17Z"
                fill="#f5c072" />
            <path
                d="M400.06,230c9.78-10.77,12-14.72,7.19-11.85-16-7.36-5.18,3.27-6.71,9.07C409.2,219.84,400.09,221.22,400.06,230Z"
                fill="#f5c072" />
            <path
                d="M455.94,177.36c6.23-2.31,8.39-11.11-4.53-15.37,2.84,4.09-4.38,15.33,4,8C455.81,169.92,460.45,175.85,455.94,177.36Z"
                fill="#f5c072" />
            <path
                d="M503.27,123.69c12.15,1.34,4.09-3.45-3.79-5.94-6.48-2.24.37,5.37,8.15,7.57C508.7,131.33,507.94,129.81,503.27,123.69Z"
                fill="#f5c072" />
            <path
                d="M528.14,98.6c2.37-1.83-5.89.37.11,4,8.36-1.94-3-6.42,5.27-7.71-.8-.84,5.86-1.07-2.08,2,1.84,1.27,2.71,1.74-2.56-1.17-1.64.45,5.77-8.37,6.3-1.73.64-4.85-7.69-5-11.82,0,2.24-5.88-.32-6.56-2.57-5.6.82,2.61,3.67,1.42,1.08,1.85,5,5.85.21,1.31-.62,1.5,1.2-1.84-3.41,5.49,2.42,7.84-7.13-1.55,1-1.3,5-4.38-7.58,6.12-5.77,3.2.48,4.93C530.73,97.61,531.91,102.09,528.14,98.6Z"
                fill="#f5c072" />
            <path
                d="M506.46,176.54c4.8-4-3-20-5.89-18.88-3.85.42-9.41,13.06-2.6,18C503.32,166.84,501.61,173.46,506.46,176.54Z"
                fill="#f5c072" />
            <path
                d="M446.1,215.88c6.54-3.83,4.8-5.18,3.14-9.4-6.91-.28-6.43,13.84-5.78,14.64C448.83,214.66,444.21,216.16,446.1,215.88Z"
                fill="#f5c072" />
            <path
                d="M592.34,154.18c4.41-3.23,3.49-11.34-6.06-8.63-5.8,2.88-.49,10.73,4.5,7.33C586.56,148.62,592,151.65,592.34,154.18Z"
                fill="#f5c072" />
            <path
                d="M564.44,197.43c4.06-1.64.7-9.75-2.73-8.7-12.72,4-8.88,7.68.2,13.51C559.77,197.43,557.69,192.56,564.44,197.43Z"
                fill="#f5c072" />
            <path
                d="M557.63,228.69c-2.1.36,3.71.67,6.17,2-4.12-5.53-7.2-6.4-4.92-4.36.92,6.58-12,1.77-.55,6,.29-.93-8.7,5.23-8.26-2.35,6.32,3.93.8,4.37-.39,7.5,9.38-5.31,14.49,3.48,12.45-.32,1.56-2.95,3.64-.95,2.18,2,1.61-3.11-7.4-2,4.39-5.47-4,1.79-6.87,4.89-8.53,2,1.08-1.09,3.26-3.14.34.31,10.54-1.68,8.58-6.5-4.1-9,6.31-.1,1.13,4.9,8.83-2.32C555.13,226.33,560.15,223,557.63,228.69Z"
                fill="#f5c072" />
            <path
                d="M499.87,274.85c4.18,3.13,4.55-7.16,5.14-9.51-14.64,5.74-11.14,13.18-7.36,14C504.59,274.91,507.11,273.71,499.87,274.85Z"
                fill="#f5c072" />
            <path
                d="M498.55,285.85c-6.56,10.55.79,5.18-9.08,2.86,1.16,1,9.37-1.51,4.34,1.76-6.32.71.79-1.56,3,3-8.06-2.56-7.35,7.92-8.52,2.67.92.5,3.46,5.9,10.27,4.26,1.84,3-3.73-.3.87,2.3-5.51-.58-1.82-6.49,4.1-1.4-4.65-1.27,1-3.14-7.38-.22,9.42-1.89,12.65-1.62,2.2-8.11,6.16,7,1.67,3.32,11.35,6.22-11.94-2.49-13.38-10.49-13.16-9.28.83-2.38,7.16-5.27-2.9-1.32C499.45,294.43,495.42,290.38,498.55,285.85Z"
                fill="#f5c072" />
            <path
                d="M444.54,305.25c6.41-1.22,7.35-12,4.25-13-9.33-1.6-6,16.09.73,15.08C443.12,298.26,447.55,301.28,444.54,305.25Z"
                fill="#f5c072" />
            <path
                d="M306.53,380.45c.23-8.46-.77-18.35,1.19-16.82-12.68.59-8.47,17.06-8.37,11.24C307.44,378.68,298.92,374.91,306.53,380.45Z"
                fill="#f5c072" />
            <path
                d="M281.26,413.23c9.68-4.45,3.07-15.45-3-12.07-9.81-.79-6.14,13,4.28,10.68C284.09,405.31,280.23,413.6,281.26,413.23Z"
                fill="#f5c072" />
            <path
                d="M283.06,437.78c2.38-5.72,2.17-17.09-7-15.43C266,426.4,267.7,435,278.89,436,280.55,436.24,280.43,430.09,283.06,437.78Z"
                fill="#f5c072" />
            <path
                d="M234.24,472c6.32,5.37,5.42-7.87.87-11.41-6.21,3.07-7.8,17.14-1.63,8.32C229.7,469.42,232.44,470.75,234.24,472Z"
                fill="#f5c072" />
            <path
                d="M77.43,366.85c1.14-5.09-2.35-18.16-7.88-12.42,1.11-5-5.74,15.44,5.87,7.31C78.49,358.4,80.23,366.85,77.43,366.85Z"
                fill="#f5c072" />
            <path
                d="M120.31,308.58c7.36-8.5,3.5-19.91-1.57-10.39-4.75-5.48-8.87,8.23-1.72,1.89C123.67,302.39,119.08,306.19,120.31,308.58Z"
                fill="#f5c072" />
            <path
                d="M144.6,318.51c7.14,8.34.23-5.64-2.91-5.2-14.37-1.7-8.4,16.3,2.15,8.12C138.16,324.85,142.46,323.25,144.6,318.51Z"
                fill="#f5c072" />
            <path
                d="M103.2,373.93c1.16,5.72-3.79,2.31-1.48,4,5.58-1.18,3-.61,4.24,5.61-10.59-5.55-6.3-4.33-7.43-6.57,4.18,6-3.34,10.74,7.52,4.64-3.77,6-9.13,1.05-5,9.85-.91-8.57-2.37,1.36,10.21-2.69-9.11-4.4-1.09-5.43-10.84-.09,2.86-2.63,2.88-2.11,10.55-2.58-5-3.52-.46.83.7-2.21-7.08-3.09-1.67-5.46.15-6.06-4.27,4,.75,2.86-1.76,5.19-6.26-4.73-5.3-9.94-5.74-4.44C100.67,381.7,106.66,380.22,103.2,373.93Z"
                fill="#f5c072" />
            <path
                d="M365.5,194.37c6.77-3.41,6.9-14.9,1.18-14.36-7.24-2.24-6.74,11.65,1.26,13.23C373,191.58,366.4,183.92,365.5,194.37Z"
                fill="#f5c072" />
            <path
                d="M369.87,261.25c8.75-9.58,10.91-13.24,3.85-18.07-7.37,4.66-10.57,19.43-2.72,16.06C370.07,258.82,369.52,253.86,369.87,261.25Z"
                fill="#f5c072" />
        </g>
    </g>
</svg>