<svg viewBox="0 0 310 310" xmlns="http://www.w3.org/2000/svg">
    <title>Strawberry</title>
    <g data-name="Layer 2" id="Layer_2">
        <g data-name="Layer 1" id="Layer_1-2">
            <path
                d="M203.06,130.17c-21.24,2.59-41.63-6.79-56.46-23.6C157.18,90.92,172.75,80.21,191.05,78c21.24-2.59,41.63,6.79,56.46,23.61C236.94,117.24,221.36,128,203.06,130.17Z"
                fill="#669940" />
            <path
                d="M111.29,54c21,4.3,37.32,19.67,46,40.32-15,11.48-33.17,16.69-51.23,13-21-4.29-37.32-19.66-46-40.32C75.06,55.55,93.23,50.34,111.29,54Z"
                fill="#669940" />
            <path
                d="M137.89,52.7c6.75-20.29,24-34.7,45.51-40.91C193,28.05,196,46.71,190.2,64.21c-6.76,20.29-24,34.71-45.51,40.91C135.07,88.86,132.06,70.2,137.89,52.7Z"
                fill="#669940" />
            <path
                d="M110.05,86.83c-43.11.8-90.2,32.91-74.78,82.19,16.43,52.54,37.08,156,117.86,128.1,38.56-13.3,57.08-55.05,83-83.24,26.16-28.47,14.57-74.42-14.71-95.43-28.7-20.59-67.49-28.16-102-31.3A87.51,87.51,0,0,0,110.05,86.83Z"
                fill="#d9240c" />
            <path
                d="M74.44,151.57a8.84,8.84,0,0,0,6-2.51,8.56,8.56,0,0,0-6-14.61A8.87,8.87,0,0,0,68.38,137a8.56,8.56,0,0,0,6.06,14.61Z"
                fill="#e9cd62" />
            <path
                d="M124,131.18a8.87,8.87,0,0,0,6.06-2.51A8.56,8.56,0,0,0,124,114.06a8.8,8.8,0,0,0-6,2.51,8.56,8.56,0,0,0,6,14.61Z"
                fill="#e9cd62" />
            <path
                d="M196.8,161.77a8.84,8.84,0,0,0,6-2.51,8.56,8.56,0,0,0-6-14.61,8.8,8.8,0,0,0-6.05,2.51,8.56,8.56,0,0,0,6.05,14.61Z"
                fill="#e9cd62" />
            <path
                d="M145.82,174.88a8.86,8.86,0,0,0,6.05-2.51,8.56,8.56,0,0,0-6.05-14.61,8.82,8.82,0,0,0-6.06,2.51,8.56,8.56,0,0,0,6.06,14.61Z"
                fill="#e9cd62" />
            <path
                d="M157.23,151.34a8.8,8.8,0,0,0,6.05-2.51,8.56,8.56,0,0,0-6.05-14.6,8.86,8.86,0,0,0-6.06,2.5,8.56,8.56,0,0,0,6.06,14.61Z"
                fill="#e9cd62" />
            <path
                d="M93.37,192.36a8.82,8.82,0,0,0,6-2.51,8.56,8.56,0,0,0-6-14.61,8.84,8.84,0,0,0-6.05,2.51,8.56,8.56,0,0,0,6.05,14.61Z"
                fill="#e9cd62" />
            <path
                d="M118.14,239a8.55,8.55,0,0,0,8.56-8.56,8.71,8.71,0,0,0-8.56-8.55,8.81,8.81,0,0,0-6,2.5,8.56,8.56,0,0,0,6,14.61Z"
                fill="#e9cd62" />
            <path
                d="M173.49,211.29a8.81,8.81,0,0,0,6-2.5,8.56,8.56,0,0,0-6-14.61,8.55,8.55,0,0,0-8.56,8.56,8.71,8.71,0,0,0,8.56,8.55Z"
                fill="#e9cd62" />
            <path d="M157.47,255a8.84,8.84,0,0,0,6.05-2.51,8.56,8.56,0,1,0-6.05,2.51Z"
                fill="#e9cd62" />
            <path
                d="M122.51,276.85a8.84,8.84,0,0,0,6-2.51,8.56,8.56,0,0,0-6-14.61,8.82,8.82,0,0,0-6.05,2.51,8.56,8.56,0,0,0,6.05,14.61Z"
                fill="#e9cd62" />
            <path
                d="M81.72,236.06a8.84,8.84,0,0,0,6-2.51,8.56,8.56,0,0,0-6-14.61,8.84,8.84,0,0,0-6,2.51,8.56,8.56,0,0,0,6,14.61Z"
                fill="#e9cd62" />
            <path
                d="M132.7,204a8.82,8.82,0,0,0,6.06-2.51,8.56,8.56,0,0,0-6.06-14.61,8.86,8.86,0,0,0-6,2.51,8.56,8.56,0,0,0,6,14.61Z"
                fill="#e9cd62" />
            <path
                d="M217.19,195.27a8.82,8.82,0,0,0,6.06-2.51,8.56,8.56,0,0,0-6.06-14.61,8.84,8.84,0,0,0-6.05,2.51,8.56,8.56,0,0,0,6.05,14.61Z"
                fill="#e9cd62" />
            <rect fill="none" height="310" width="310" />
        </g>
    </g>
</svg>