<svg viewBox="0 0 282 503" xmlns="http://www.w3.org/2000/svg">
    <title>Jack Daniel</title>
    <g data-name="Layer 2" id="Layer_2">
        <g data-name="Layer 1" id="Layer_1-2">
            <path
                d="M210.09,434.23c0,15.89-9.25,24.88-25.32,25.15-14.59.24-29.18.05-43.77.05s-29.18.19-43.77-.05c-16.07-.27-25.28-9.26-25.32-25.15q-.19-102.5,0-205c0-13.33,5.31-19.75,18-24.36A59.68,59.68,0,0,0,104.63,197c10.26-7.58,7.83-20.17,6.21-29-4.16-22.53-1.71-43.79,4.83-65.09,1.55-5.06,4-9.76-1.9-14-1.22-.87-1.19-3.93-1.21-6-.11-10,.06-19.93-.08-29.89-.09-6.89,3.52-9.58,9.93-9.58h37.18c6.41,0,10,2.69,9.93,9.58-.14,10,0,19.93-.08,29.89,0,2.07,0,5.13-1.21,6-5.88,4.19-3.45,8.89-1.9,14,6.54,21.3,9,42.56,4.83,65.09-1.62,8.81-4,21.4,6.21,29a59.68,59.68,0,0,0,14.78,7.88c12.65,4.61,17.94,11,18,24.36Q210.23,331.74,210.09,434.23Z"
                fill="#cb4500" />
            <path
                d="M171.59,165.55H110.41c-3.54-21.62-1-42.1,5.26-62.62,1.55-5.06,4-9.76-1.9-14-1.22-.87-1.19-3.93-1.21-6-.11-10,.06-19.93-.08-29.89-.09-6.89,3.52-9.58,9.93-9.58h37.18c6.41,0,10,2.69,9.93,9.58-.14,10,0,19.93-.08,29.89,0,2.07,0,5.13-1.21,6-5.88,4.19-3.45,8.89-1.9,14C172.63,123.45,175.13,143.93,171.59,165.55Z" />
            <rect height="185.62" width="137.65" x="72.18" y="238.54" />
            <rect fill="none" height="503" width="282" />
        </g>
    </g>
</svg>