<svg viewBox="0 0 282 503" xmlns="http://www.w3.org/2000/svg">
    <title>Lemon Syrup</title>
    <g data-name="Layer 2" id="Layer_2">
        <g data-name="Layer 1" id="Layer_1-2">
            <path
                d="M243,305.5c-6.45-32.15-61.92-61.69-73.89-91-4.15-10.17-5.8-28.1-6.08-48.2a38,38,0,0,0,3.23-75.14c.05-.56.09-1.11.14-1.66H115.49c3.16,37.41,6.81,101.68-2.71,125-12,29.31-67.44,58.85-73.89,91-7,34.73,27.46,129.71,35.09,150.11a6,6,0,0,0,5.62,3.89H202.32a6,6,0,0,0,5.62-3.89C215.57,435.21,250,340.23,243,305.5ZM179.21,129a20.49,20.49,0,0,1-16.08,20c.26-13.44,1-27.12,1.78-39.55A20.51,20.51,0,0,1,179.21,129Z"
                fill="#f4f3dd" />
            <rect fill="#d7cc6a" height="46" rx="8.65" width="64.5" x="108.71" y="43.5" />
            <path
                d="M208,455.61a6,6,0,0,1-5.62,3.89H79.68a6,6,0,0,1-5.62-3.89C66.43,435.21,32,340.23,39,305.5c6.45-32.15,61.92-61.69,73.89-91,3.65-8.93,5.36-23.87,5.91-41H163.3c.56,17.13,2.27,32.06,5.92,41,12,29.31,67.44,58.85,73.89,91C250.08,340.23,215.65,435.21,208,455.61Z"
                fill="#f3ff48" />
            <rect fill="#c69c6d" height="92" rx="10" width="130" x="76.21" y="295.5" />
            <rect fill="none" height="503" width="282" />
        </g>
    </g>
</svg>