<svg viewBox="0 0 282 503" xmlns="http://www.w3.org/2000/svg">
    <title>Old Durbar</title>
    <g data-name="Layer 2" id="Layer_2">
        <g data-name="Layer 1" id="Layer_1-2">
            <path
                d="M210.16,435.43c0,3.95-.1,8.24-2.52,11.37-2,2.58-5.18,3.88-8.25,5-18.69,6.7-38.54,7.67-58.39,7.72-20.79.05-41.58-1.15-61.08-8.38-2.6-1-5.38-2.16-6.79-4.55C72,444.63,72,442.26,72,440q0-101.46.17-202.94,0-11.21,0-22.43c0-5.35-2-14.23,4-17.15l.28-.13v-.11a82,82,0,0,0,38.38-69.8,84.68,84.68,0,0,0-.5-9.2h54.17a84.68,84.68,0,0,0-.5,9.2,81.93,81.93,0,0,0,39.18,70.28v.14a5.51,5.51,0,0,1,1.41,1.36,9.47,9.47,0,0,1,1.4,5.54c0,.35,0,.69,0,1Z"
                fill="#f0ecec" />
            <path
                d="M210.16,435.43c0,3.95-.1,8.24-2.52,11.37-2,2.58-5.18,3.88-8.25,5-18.69,6.7-38.54,7.67-58.39,7.72-20.79.05-41.58-1.15-61.08-8.38-2.6-1-5.38-2.16-6.79-4.55C72,444.63,72,442.26,72,440q0-101.46.17-202.94,0-11.21,0-22.43c0-5.35-2-14.23,4-17.15l.28-.13v-.11a81.67,81.67,0,0,0,36.93-54.21h56.08a81.57,81.57,0,0,0,37.72,54.69v.14a5.51,5.51,0,0,1,1.41,1.36,9.47,9.47,0,0,1,1.4,5.54c0,.35,0,.69,0,1Z"
                fill="#e47524" />
            <rect fill="#ccbe99" height="79.16" width="58.9" x="111.55" y="43.5" />
            <line fill="none" stroke="#91866a" stroke-miterlimit="10" stroke-width="2" x1="111.19"
                x2="170.09" y1="73.41" y2="73.41" />
            <line fill="none" stroke="#000" stroke-miterlimit="10" stroke-width="0.8" x1="111.57"
                x2="170.43" y1="103.07" y2="103.07" />
            <rect height="12.39" width="58.77" x="111.62" y="105.87" />
            <rect fill="#ece59f" height="195.1" width="124.74" x="78.63" y="219.01" />
            <rect fill="none" height="503" width="282" />
        </g>
    </g>
</svg>