<svg viewBox="0 0 282 503" xmlns="http://www.w3.org/2000/svg">
    <title>Rum</title>
    <g data-name="Layer 2" id="Layer_2">
        <g data-name="Layer 1" id="Layer_1-2">
            <path
                d="M164.15,48.78,161.66,73,161,79.64h0l-.82,8H121.86l-2.29-22.26-1-9.4-.75-7.29.73-.35a53.74,53.74,0,0,1,44.71,0Z"
                fill="#df8f38" />
            <path
                d="M223.26,297.18l-.15,127.14c0,3.83-.17,8-1.67,11.42-5.14,13.41-39.09,23.76-80.21,23.76-44.17,0-80.07-11.95-80.87-26.79a35.69,35.69,0,0,1-.43-6.45q-.13-51.51-.26-103c-.05-19.64-3.39-44.67,2.86-63.35,5.4-16.14,16.61-30.8,32.11-38.33,1.34-.65,2.7-1.24,4.07-1.78,1-.4,2-.77,3.06-1.12a17.69,17.69,0,0,0,9.71-12.15l.32-5.8L117,106.12H165.5l5.61,103a17.69,17.69,0,0,0,7.6,9.3c12.86,3.85,25,11.08,32.78,22C222.88,256.41,223.29,277.51,223.26,297.18Z"
                fill="#671611" />
            <polygon fill="#d3d9d8"
                points="112.44 180.94 169.06 180.94 164.51 87.41 117.49 87.41 112.44 180.94" />
            <path d="M169.63,181H112.37v-.06l5.06-93.59h47.14v.06Zm-57.13-.12H169l-4.54-93.4h-46.9Z"
                fill="#d3d9d8" />
            <rect fill="#d7ddd8" height="18.71" rx="5.71" width="61.68" x="109.78" y="96.51" />
            <line fill="none" stroke="#979998" stroke-linecap="round" stroke-miterlimit="10"
                stroke-width="2.53" x1="123.68" x2="158.56" y1="92.97" y2="92.97" />
            <line fill="none" stroke="#979998" stroke-linecap="round" stroke-miterlimit="10"
                stroke-width="2.79" x1="120.14" x2="162.61" y1="119.01" y2="119.01" />
            <path
                d="M124.76,60.62a4.8,4.8,0,0,1-4.81,4.8h-.38l-1-9.4a4.64,4.64,0,0,1,1.35-.19A4.8,4.8,0,0,1,124.76,60.62Z"
                fill="#b77332" />
            <circle cx="135.37" cy="67.44" fill="#b77332" r="4.3" />
            <circle cx="144.47" cy="51.77" fill="#b77332" r="5.81" />
            <circle cx="131.84" cy="80.59" fill="#b77332" r="2.78" />
            <path d="M161.66,73,161,79.64h0a4.3,4.3,0,0,1-6.64-3.6A4.3,4.3,0,0,1,161.66,73Z"
                fill="#b77332" />
            <circle cx="145.99" cy="66.94" fill="#b77332" r="1.52" />
            <rect fill="none" height="503" width="282" />
        </g>
    </g>
</svg>