<svg viewBox="0 0 282 503" xmlns="http://www.w3.org/2000/svg">
    <title>Vanilla Syrup</title>
    <g data-name="Layer 2" id="Layer_2">
        <g data-name="Layer 1" id="Layer_1-2">
            <path
                d="M79.64,460.25a6.78,6.78,0,0,1-6.32-4.38c-7.1-19-42.16-115.45-35.13-150.52,3.57-17.76,21.83-34.68,39.49-51,14.95-13.84,29.06-26.92,34.45-40.09,9.5-23.29,5.74-88.1,2.65-124.66l-.07-.81h52.58l-.16,1.8A38.75,38.75,0,0,1,163.86,167c.35,22.43,2.37,38.32,6,47.25,5.39,13.17,19.5,26.25,34.45,40.09,17.66,16.36,35.92,33.28,39.49,51,7,35.07-28,131.54-35.13,150.52a6.78,6.78,0,0,1-6.32,4.38Zm86-349.76c-.88,13.43-1.45,26.05-1.69,37.56a19.74,19.74,0,0,0,1.69-37.56Z"
                fill="#f4f3dd" />
            <path
                d="M166.47,89.5c-.05.55-.09,1.1-.14,1.66a38,38,0,0,1-3.23,75.14c.28,20.1,1.93,38,6.08,48.2,12,29.31,67.44,58.85,73.89,91,7,34.73-27.46,129.71-35.09,150.11a6,6,0,0,1-5.62,3.89H79.64A6,6,0,0,1,74,455.61C66.39,435.21,32,340.23,38.93,305.5c6.45-32.15,61.92-61.69,73.89-91,9.52-23.32,5.87-87.59,2.71-125h50.94M163.17,149A20.49,20.49,0,0,0,165,109.46c-.83,12.43-1.52,26.11-1.78,39.55m4.94-61H113.9l.14,1.63c3.08,36.49,6.84,101.16-2.61,124.3-5.32,13-19.37,26-34.26,39.83C59.42,270.2,41.07,287.2,37.46,305.2c-7.08,35.27,28,131.92,35.16,150.94a7.52,7.52,0,0,0,7,4.86H202.36a7.52,7.52,0,0,0,7-4.86c7.12-19,42.24-115.67,35.16-150.94-3.61-18-22-35-39.71-51.44C189.94,240,175.89,227,170.57,213.93c-3.57-8.75-5.57-24.32-5.95-46.3A39.5,39.5,0,0,0,167.94,90c0-.11,0-.22,0-.32l.15-1.64Zm-3.4,59c.25-10.92.78-22.83,1.6-35.47A18.91,18.91,0,0,1,177.75,129a19.11,19.11,0,0,1-13,18Z" />
            <rect fill="#d7cc6a" height="46" rx="8.65" width="64.5" x="108.75" y="43.5" />
            <path
                d="M208,455.61a6,6,0,0,1-5.62,3.89H79.64A6,6,0,0,1,74,455.61C66.39,435.21,32,340.23,38.93,305.5c6.45-32.15,61.92-61.69,73.89-91,3.65-8.93,5.36-23.87,5.91-41h44.53c.56,17.13,2.27,32.06,5.92,41,12,29.31,67.44,58.85,73.89,91C250,340.23,215.61,435.21,208,455.61Z"
                fill="#fff" />
            <rect fill="#c69c6d" height="92" rx="10" width="130" x="76.25" y="295.5" />
            <rect fill="none" height="503" width="282" />
        </g>
    </g>
</svg>