<svg viewBox="0 0 282 503" xmlns="http://www.w3.org/2000/svg">
    <title>Wine</title>
    <g data-name="Layer 2" id="Layer_2">
        <g data-name="Layer 1" id="Layer_1-2">
            <path
                d="M210.22,217.09c0,.34.05.68.05,1v230.5A10.87,10.87,0,0,1,199.4,459.5H82.6a10.87,10.87,0,0,1-10.87-10.87V218.13c0-.36,0-.7,0-1,0-.88,0-1.76,0-2.65a69.3,69.3,0,0,1,44.63-64.76V53.2a9.7,9.7,0,0,1,9.7-9.7h29.88a9.7,9.7,0,0,1,9.7,9.7v96.48a69.3,69.3,0,0,1,44.63,64.76C210.27,215.33,210.25,216.21,210.22,217.09Z"
                fill="#146953" />
            <path
                d="M165.51,53.2v76.45H116.23V53.2a9.7,9.7,0,0,1,9.7-9.7h29.88A9.7,9.7,0,0,1,165.51,53.2Z"
                fill="#7e1528" />
            <rect fill="#ffffe9" height="166.87" width="122.24" x="79.88" y="215.41" />
            <rect fill="none" height="503" width="282" />
        </g>
    </g>
</svg>