<svg xmlns="http://www.w3.org/2000/svg" viewBox="0 0 100 100"><title>Bagel</title><g id="Layer_2" data-name="Layer 2"><g id="Layer_1-2" data-name="Layer 1"><path d="M79.86,54.29A15.88,15.88,0,0,0,78,47.84a16.15,16.15,0,0,0-2.31-3.15,19.13,19.13,0,0,0-3.89-3.13c-.48-.3-1-.58-1.49-.85A36.29,36.29,0,0,0,56.5,37.16l-.79,0a3.45,3.45,0,0,1,.55.9c-1,2.39-4.59,4-9,4.42-4.84.5-9.05-.52-10.18-3.16a3.14,3.14,0,0,1,.27-.51l-.42.11c-7.85,2-14.13,5.64-17.42,10.73a15.51,15.51,0,0,0-2.29,5.86,16.65,16.65,0,0,0-.15,4.14.13.13,0,0,0,0,.06,15.74,15.74,0,0,0,5.1,10.45h0c6,5.58,16.5,7.86,28.16,6.87C65.15,75.73,77,69.62,79.46,59.7a16,16,0,0,0,.45-3.29A16.81,16.81,0,0,0,79.86,54.29Zm-33-5.16c4.84-.51,9,.45,10.13,3.08-1,2.4-4.59,4-9,4.42-4.84.5-9-.52-10.18-3.15C38.85,51.1,42.46,49.58,46.86,49.13Z" fill="#ffbe3d"/><path d="M18.57,52.88a10.46,10.46,0,0,0-2.6,2,3.6,3.6,0,0,0-.9,3,2.19,2.19,0,0,0,2.45,1.68c.9-.21,1.66-1.14,2.57-.95a1.48,1.48,0,0,1,1.07,1.39,3.35,3.35,0,0,1-.54,1.78c-.61,1-1.43,1.94-2,3a3.7,3.7,0,0,0-.25,3.44c.75,1.37,2.55,1.69,4.12,1.86l3.83.42a6.13,6.13,0,0,0,2.22,0,6,6,0,0,0,2.19-1.36c2.44-2.11,4.94-4.47,8.12-5a2.19,2.19,0,0,1,1.19.07c.56.25.85.86,1.18,1.37,1.91,3,6.21,3.51,9.63,2.49s6.38-3.15,9.7-4.43C68,60.83,77,62.32,83.38,57.62c.92-.68,1.85-1.72,1.57-2.84-.42-1.72-3.16-1.84-3.8-3.49a5.63,5.63,0,0,1-.22-1.17,4.81,4.81,0,0,0-3.48-3.79" fill="#fff"/><path d="M79.13,40.09c0-.38-.07-.74-.13-1.11,0-.16,0-.33-.08-.5s-.06-.3-.08-.44a.89.89,0,0,1,0-.14l-.09-.36a11.06,11.06,0,0,0-.26-.95c0-.13-.07-.25-.11-.37s0-.16-.08-.24l-.18-.47C74.3,25.73,61.23,21.75,46.07,23,29.13,24.47,15.86,32,16.3,44.51c0,.14,0,.29,0,.43l0,.46c0,.22,0,.43.07.64s0,.3.06.45,0,.23.05.35l.06.32c.06.3.12.6.19.89l.12.47a.17.17,0,0,1,0,.1c.05.14.09.29.13.43l.17.48c.1.3.21.59.33.88.07.13.12.27.19.41l.16.34h0l.18.35.2.37a15.28,15.28,0,0,0,1.07,1.67l.28.36.31.39.33.39.27.29.13.15.29.29.37.36c.1.1.2.2.31.29.3.28.62.54.94.8l.32.25.43.31.44.32.43.29.45.28.44.27.13.07.76.42.1.06a27.73,27.73,0,0,0,3.12,1.38c.91.35,1.85.65,2.83.92s2,.51,3,.71l.63.12.39.07a46.59,46.59,0,0,0,4.86.54c.84.06,1.68.09,2.54.1h.22c1.08,0,2.17,0,3.28-.05.86,0,1.74-.09,2.62-.16l.64-.06.63-.06.63-.07c.67-.08,1.34-.17,2-.27.48-.06,1-.14,1.43-.22l.73-.14.71-.13h0l.72-.15.71-.16.7-.17.7-.17.55-.15h0l.65-.18.51-.15c1-.28,1.86-.59,2.75-.93l.43-.16c.52-.2,1-.41,1.54-.64h0l.44-.2.48-.22.47-.23q.7-.35,1.38-.72l.44-.25.44-.25a26.49,26.49,0,0,0,2.77-1.9c.13-.09.25-.19.36-.28.27-.22.53-.44.78-.67l.34-.31c.12-.1.23-.21.34-.32.35-.34.68-.68,1-1l.24-.28.29-.34.28-.35c.29-.37.56-.74.81-1.13a3.45,3.45,0,0,0,.2-.32,14.27,14.27,0,0,0,.88-1.57,2.39,2.39,0,0,0,.13-.28l.21-.46c.1-.24.2-.49.29-.73s.07-.19.1-.29l0-.15.1-.3c.09-.31.18-.63.26-.95,0-.12.06-.24.08-.36l0-.22,0-.16a2.87,2.87,0,0,0,0-.31c0-.17.06-.35.09-.53l.06-.53a.13.13,0,0,1,0-.06c0-.16,0-.31,0-.47l0-.61c0-.19,0-.38,0-.57C79.2,41.1,79.17,40.6,79.13,40.09Zm-33-5.17c4.24-.44,8,.24,9.57,2.19a3.45,3.45,0,0,1,.55.9c-1,2.39-4.59,4-9,4.42-4.84.5-9.05-.52-10.18-3.16a3.14,3.14,0,0,1,.27-.51C38.65,36.68,42.05,35.34,46.14,34.92Z" fill="#ffbe3d"/><path d="M56.5,37.16a4,4,0,0,1-.24.85,3.45,3.45,0,0,0-.55-.9c-1.61-2-5.33-2.63-9.57-2.19s-7.49,1.76-8.78,3.84a3.14,3.14,0,0,0-.27.51,2.74,2.74,0,0,1-.15-.4,3.72,3.72,0,0,1-.13-.68c-.36-3.43,3.88-5.62,9.33-6.18s10,.71,10.39,4.15A3.34,3.34,0,0,1,56.5,37.16Z" fill="#ff8a14"/><rect x="50.93" y="51.95" width="1.59" height="2.83" rx="0.55" transform="translate(8.09 -6.79) rotate(8.15)" fill="#fbd78d"/><rect x="58.21" y="46.48" width="1.59" height="2.83" rx="0.55" transform="translate(7.39 -7.88) rotate(8.15)" fill="#fbd78d"/><rect x="70.23" y="39.56" width="1.59" height="2.83" rx="0.55" transform="translate(6.53 -9.66) rotate(8.15)" fill="#fbd78d"/><rect x="64.76" y="30.46" width="1.59" height="2.83" rx="0.55" transform="translate(5.18 -8.97) rotate(8.15)" fill="#fbd78d"/><rect x="52.02" y="26.09" width="1.59" height="2.83" rx="0.55" transform="translate(4.43 -7.21) rotate(8.15)" fill="#fbd78d"/><path d="M31,32.6h0a.81.81,0,0,1-.55-.94l.14-1.26c.05-.45.38-.77.74-.7h0a.81.81,0,0,1,.56.93l-.15,1.27A.7.7,0,0,1,31,32.6Z" fill="#fbd78d"/><path d="M21.51,43.16h0a.81.81,0,0,1-.55-.93L21.1,41a.7.7,0,0,1,.74-.7h0a.81.81,0,0,1,.56.93l-.14,1.27C22.2,42.91,21.87,43.22,21.51,43.16Z" fill="#fbd78d"/><path d="M33.9,45.34h0a.81.81,0,0,1-.56-.93l.14-1.27a.69.69,0,0,1,.75-.69h0a.81.81,0,0,1,.55.93l-.14,1.26C34.59,45.09,34.25,45.41,33.9,45.34Z" fill="#fbd78d"/><g opacity="0.1"><path d="M22.07,58.2c-.3.51-.65,1-1,1.46a1.4,1.4,0,0,0-1-1c-.91-.19-1.67.74-2.57.95a2.19,2.19,0,0,1-2.45-1.68,3.6,3.6,0,0,1,.9-3,5.11,5.11,0,0,1,.57-.57A2.17,2.17,0,0,0,19,56c.91-.21,1.66-1.14,2.58-.95a1.48,1.48,0,0,1,1.06,1.39A3.18,3.18,0,0,1,22.07,58.2Z"/></g><g opacity="0.1"><path d="M83.38,57.62C77,62.31,68,60.83,60.55,63.68c-3.32,1.28-6.29,3.42-9.7,4.43s-7.71.51-9.63-2.49c-.33-.51-.62-1.12-1.18-1.37a2.09,2.09,0,0,0-1.19-.06c-3.18.51-5.69,2.88-8.12,5a5.84,5.84,0,0,1-2.19,1.36,6.13,6.13,0,0,1-2.22,0l-3.83-.42c-1.57-.17-3.36-.49-4.12-1.86a3.72,3.72,0,0,1,.25-3.45,13.36,13.36,0,0,1,.89-1.37,2.53,2.53,0,0,0,.32,1.17c.75,1.38,2.55,1.7,4.11,1.87l3.83.42a6.18,6.18,0,0,0,2.23,0,6.06,6.06,0,0,0,2.19-1.36c2.43-2.11,4.93-4.47,8.11-5a2.17,2.17,0,0,1,1.19.07c.57.24.86.86,1.18,1.37,1.92,3,6.22,3.51,9.63,2.49S58.68,61.32,62,60c7.33-2.82,16.23-1.4,22.62-5.92a1.69,1.69,0,0,1,.32.66C85.23,55.9,84.3,56.93,83.38,57.62Z"/></g><path d="M49.62,62.78C32.28,64.24,17.46,58.5,16.35,45.4c0-.3,0-.6-.05-.89,3.82,9.85,17.06,14.09,32.23,12.8,16.94-1.43,30-9.22,29.56-21.8a16.31,16.31,0,0,1,1,4.58C80.24,53.19,67,61.31,49.62,62.78Z" fill="#ffaa54"/><rect x="33.08" y="54.86" width="1.59" height="2.83" rx="0.55" transform="translate(8.32 -4.23) rotate(8.15)" fill="#fbd78d"/><circle cx="50" cy="50" r="50" fill="none"/></g></g></svg>