<svg xmlns="http://www.w3.org/2000/svg" viewBox="0 0 100 100"><title>Bread</title><g id="Layer_2" data-name="Layer 2"><g id="Layer_1-2" data-name="Layer 1"><path d="M83.44,50.4a14.18,14.18,0,0,1-4,2.05q-26.53,10-53.19,19.63c-2.42.87-5.2,1.72-7.46.5-5.77-3.12-3-11,.84-17.15a43.18,43.18,0,0,1,4.58-6.16c.36-.39.69-.73,1-1s.65-.62,1-.91a42.61,42.61,0,0,1,7.41-5.27c.92-.51,1.86-1,2.81-1.45A50.94,50.94,0,0,1,46,37.19c1.09-.28,2.2-.52,3.3-.73,1.59-.3,3.19-.53,4.79-.7,1.07-.12,2.13-.2,3.2-.25s2.07-.08,3.11-.09a66.51,66.51,0,0,1,7.85.44c1.31.14,2.61.33,3.91.54,4.27.72,9.12,1.73,11.8,5.48a8.29,8.29,0,0,1,1.37,3A5.5,5.5,0,0,1,83.44,50.4Z" fill="#ffbe3d"/><path d="M20.56,56c-.34-.16-.66-.34-1-.53a43.18,43.18,0,0,1,4.58-6.16c1.4,1.63,2.78,3.26,4.16,4.9C29.08,58.55,22.38,56.86,20.56,56Z" fill="#f51" opacity="0.5"/><path d="M38.24,49c-.56,3.43-7,1.64-8.82.68a14.86,14.86,0,0,1-3.28-2.32,42.61,42.61,0,0,1,7.41-5.27l3.66,4.49A3.3,3.3,0,0,1,38.24,49Z" fill="#f51" opacity="0.5"/><path d="M49.51,44.43c-1.09,3.65-7.79.8-9.67-.51a16.24,16.24,0,0,1-3.48-3.29A50.94,50.94,0,0,1,46,37.19c.93,1.48,1.85,3,2.77,4.47A3.55,3.55,0,0,1,49.51,44.43Z" fill="#f51" opacity="0.5"/><path d="M58.33,40.89c-1.56,2.66-6.28-.86-7.51-2.25a13.27,13.27,0,0,1-1.55-2.18c1.59-.3,3.19-.53,4.79-.7,1.07-.12,2.13-.2,3.2-.25l1,3.05A2.92,2.92,0,0,1,58.33,40.89Z" fill="#f51" opacity="0.5"/><path d="M68.38,39.34c-1.77,2.53-6.18-1.37-7.29-2.85a12.51,12.51,0,0,1-.72-1.07,66.51,66.51,0,0,1,7.85.44L68.49,37A2.9,2.9,0,0,1,68.38,39.34Z" fill="#f51" opacity="0.5"/><circle cx="50" cy="50" r="50" fill="none"/></g></g></svg>