<svg id="Layer_1" enable-background="new 0 0 512 512" height="512" viewBox="0 0 512 512" width="512" xmlns="http://www.w3.org/2000/svg"><g><g><path d="m500.5 390h-42v-189.499c0-9.649-7.851-17.5-17.5-17.5h-24.615c-4.142 0-7.5 3.358-7.5 7.5s3.358 7.5 7.5 7.5h24.615c1.378 0 2.5 1.122 2.5 2.5v89.886c-8.706-1.546-13.951-5.846-20.249-11.008-8.589-7.041-18.325-15.021-37.258-15.021-18.931 0-28.665 7.98-37.254 15.021-7.92 6.493-14.176 11.622-27.745 11.622s-19.825-5.128-27.745-11.622c-8.589-7.04-18.324-15.021-37.255-15.021s-28.665 7.98-37.253 15.021c-7.92 6.493-14.176 11.621-27.744 11.621s-19.824-5.128-27.744-11.622c-8.588-7.04-18.323-15.021-37.253-15.021-18.931 0-28.666 7.98-37.255 15.021-6.296 5.162-11.542 9.461-20.245 11.007v-34.386c0-4.142-3.358-7.5-7.5-7.5s-7.5 3.358-7.5 7.5v134h-42c-6.341.001-11.5 5.16-11.5 11.501v6c0 15.164 12.336 27.5 27.5 27.5h.03c.79 19.985 17.295 36 37.47 36h31.18c4.142 0 7.5-3.358 7.5-7.5s-3.358-7.5-7.5-7.5h-31.18c-11.902 0-21.676-9.29-22.451-21h426.901c-.775 11.709-10.548 21-22.451 21h-318.409c-4.142 0-7.5 3.358-7.5 7.5s3.358 7.5 7.5 7.5h318.41c20.175 0 36.68-16.015 37.47-36h.03c15.164 0 27.5-12.336 27.5-27.5v-6c0-6.341-5.159-11.5-11.5-11.5zm-402.245-99.02c7.92-6.493 14.176-11.622 27.745-11.622 13.567 0 19.823 5.128 27.743 11.621 8.588 7.041 18.323 15.021 37.253 15.021s28.665-7.98 37.253-15.021c7.92-6.493 14.176-11.621 27.744-11.621 13.569 0 19.825 5.128 27.746 11.622 8.589 7.041 18.324 15.021 37.255 15.021s28.666-7.98 37.254-15.021c7.92-6.493 14.176-11.621 27.744-11.621 13.571 0 19.828 5.128 27.75 11.622 7.375 6.046 15.596 12.784 29.758 14.568v38.451h-375v-38.453c14.16-1.784 22.38-8.522 29.755-14.567zm-29.755 68.02h375v31h-375zm428.5 48.5c0 6.893-5.607 12.5-12.5 12.5h-457c-6.893 0-12.5-5.607-12.5-12.5v-2.5h482z"/><path d="m61 231.424c4.142 0 7.5-3.358 7.5-7.5v-23.423c0-1.378 1.122-2.5 2.5-2.5h313.18c4.142 0 7.5-3.358 7.5-7.5s-3.358-7.5-7.5-7.5h-66.704c5.029-6.506 8.024-14.66 8.024-23.5 0-18.88-13.661-34.629-31.617-37.883-3.254-17.956-19.003-31.617-37.883-31.617-3.048 0-6.014.357-8.86 1.029-1.944-20.106-11.303-37.606-15.759-44.949-1.669-2.782-4.478-4.605-7.704-5.002-3.224-.396-6.394.692-8.687 2.985-6.73 6.721-10.999 16.272-13.579 24.099-22.494-16.102-43.822-14.208-50.264-13.13-4.417.736-7.878 4.198-8.614 8.611-1.078 6.447-2.973 27.774 13.13 50.268-7.826 2.579-17.376 6.847-24.096 13.576-2.296 2.296-3.385 5.463-2.988 8.69s2.22 6.035 4.973 7.687c8.619 5.225 29.369 16.138 52.243 16.138.236 0 .472-.001.708-.004.11 8.648 3.087 16.618 8.021 23.002h-123.524c-9.649 0-17.5 7.851-17.5 17.5v23.423c0 4.142 3.358 7.5 7.5 7.5zm249.5-71.923c0 12.958-10.542 23.5-23.5 23.5s-23.5-10.542-23.5-23.5 10.542-23.5 23.5-23.5 23.5 10.542 23.5 23.5zm-31.935-37.568c-9.19 2.062-17.149 7.42-22.565 14.762-5.416-7.343-13.375-12.7-22.565-14.762 2.849-9.771 11.887-16.931 22.565-16.931s19.717 7.159 22.565 16.931zm-131.521 12.304c7.044-4.536 16.086-7.051 20.243-8.038 3.272-.774 5.836-3.146 6.858-6.347 1.025-3.21.309-6.641-1.918-9.179-14.813-16.879-15.864-33.342-15.288-41.234 7.89-.572 24.354.475 41.234 15.289 2.538 2.227 5.968 2.942 9.178 1.918 3.2-1.022 5.573-3.586 6.345-6.852.988-4.161 3.503-13.204 8.041-20.25 4.401 8.47 10.67 23.199 10.759 38.484-7.387 5.711-12.649 14.043-14.38 23.59-13.038 2.363-23.811 11.313-28.734 23.266-16.61 1.076-33.077-5.833-42.338-10.647zm54.456 25.264c0-1.927.233-3.8.673-5.593.046-.157.087-.316.122-.477 2.683-10.025 11.845-17.43 22.705-17.43 12.958 0 23.5 10.542 23.5 23.5s-10.542 23.5-23.5 23.5-23.5-10.542-23.5-23.5z"/></g></g></svg>