<svg id="Capa_1" enable-background="new 0 0 485.15 485.15" height="512" viewBox="0 0 485.15 485.15" width="512" xmlns="http://www.w3.org/2000/svg"><path d="m297.466 197.687v-.115c34.23-.039 61.97-27.778 62.01-62.008.215-14.764-5.594-28.979-16.088-39.367-11.239-11.176-27.346-17.568-44.237-17.568h-.381c-30.613.175-63.562 20.943-63.562 66.126h-.08c5.484 15.051 13.345 29.863 25.024 41.7 7.439 7.537 19.935 11.286 37.314 11.232z"/><path d="m57.437 366.207c13.147 3.593 28.5 5.352 45.515 5.353 44.086 0 99.357-11.8 156.611-34.1 67.82-26.413 124.209-62.995 131.165-85.091 4.513-14.334 2.4-27.065-6.29-37.838-9.175-11.381-23.646-14.14-48.381-9.227-41.725 8.29-69.348 4.88-84.448-10.42-29.411-29.8-36.528-74.8-40.781-101.689-.932-5.894-1.828-11.557-2.723-15.218-9.685 3.711-36.365 20.518-62.568 47.552-25.943 26.766-57.955 70.007-63.123 124-.395 4.121.355 12.6 1.6 18.148.689 3.265 3.06 5.918 6.227 6.969 1.278-.157 2.587-.31 3.935-.45 137.994-14.49 155.323-33.164 156.759-35.088 1.2-3.089 4.676-4.62 7.765-3.42 2.7 1.049 4.265 3.876 3.721 6.72-1.529 8.034-20.863 28.377-166.993 43.72-.596.063-1.186.128-1.77.195-.445.15-.906.247-1.373.289l-.278.042c-.721.147-1.458.194-2.192.141-1.434.187-2.839.378-4.223.567-4.251.58-8.266 1.128-11.9 1.338-24.268 1.4-41.451 22.861-43.453 41.942-1.825 17.379 8.088 30.345 27.198 35.565z"/><path d="m185.247 465.948v-.071c.373-.015.745-.024 1.118-.038 52.64-5.139 99.264-17.565 139.412-37.259 61.342-30.089 92.039-70.128 104.878-91.317 6.376-10.523 8.54-17.33 8.9-28.012.967-28.317-12.254-44.635-39.292-48.579-7.625 15.473-28.126 31.225-44.8 42.145-24.706 16.179-57.218 32.454-91.547 45.824-37.3 14.525-75.147 25.107-109.459 30.6-16.963 2.825-34.122 4.304-51.318 4.424-18.178 0-34.511-1.962-48.867-5.883-5.704-1.498-11.154-3.836-16.171-6.936-5.925 3.509-18.755 11.774-28.889 22.958-5.659 6.243-13.168 27.657-6.746 44.639 5.381 14.229 19.249 22.691 41.218 25.15 51.083 5.719 98.271 6.505 141.563 2.355z"/><path d="m446.331 333.372c-1.595 3.48-3.404 6.858-5.416 10.115-13.519 22.311-45.768 64.435-109.856 95.872-24.788 12.012-50.826 21.251-77.642 27.547 6.941.361 13.836.758 20.675 1.153 59.814 3.454 116.311 6.719 169.147-15.93 11.865-5.319 22.208-13.525 30.086-23.869 10.112-13.458 13.765-28.3 10.857-44.11-4.382-23.828-26.835-42.766-37.851-50.778z"/><path d="m328.86 84.585c3.314.004 6.003-2.679 6.007-5.993 0-.272-.018-.544-.054-.813-3-22.16 6.076-34.276 38.866-51.856 2.92-1.566 4.019-5.203 2.453-8.123s-5.203-4.019-8.123-2.453c-31.747 17.022-49.3 32.957-45.088 64.043.402 2.973 2.939 5.192 5.939 5.195z"/></svg>