<svg xmlns="http://www.w3.org/2000/svg" viewBox="0 0 100 100"><title>cake1</title><g id="Layer_2" data-name="Layer 2"><g id="Layer_1-2" data-name="Layer 1"><circle cx="50" cy="50" r="50" fill="none"/><path d="M80.76,39.62V55.44H19.24V45a2.89,2.89,0,0,0,.94.15h.21a3.14,3.14,0,0,0,3.14-3.14,3.14,3.14,0,0,1,3.14-3.14h.21A3.14,3.14,0,0,1,30,42.05a3.15,3.15,0,0,0,3.14,3.14h.21a3.14,3.14,0,0,0,3.14-3.14,3.15,3.15,0,0,1,3.14-3.14h.21A3.14,3.14,0,0,1,43,42.05a3.15,3.15,0,0,0,3.14,3.14h.21a3.14,3.14,0,0,0,3.14-3.14,3.14,3.14,0,0,1,3.14-3.14h.21A3.14,3.14,0,0,1,56,42.05a3.15,3.15,0,0,0,3.14,3.14h.21a3.14,3.14,0,0,0,3.14-3.14,3.15,3.15,0,0,1,3.14-3.14h.21a3.14,3.14,0,0,1,3.14,3.14,3.14,3.14,0,0,0,3.14,3.14h.21a3.14,3.14,0,0,0,2.22-.92,3.18,3.18,0,0,0,.92-2.22,3.14,3.14,0,0,1,3.14-3.14h.2A3.08,3.08,0,0,1,80.76,39.62Z" fill="#f06689"/><path d="M85,67.37a1.88,1.88,0,0,1-1.88,1.88H16.88a1.88,1.88,0,1,1,0-3.76H83.12A1.88,1.88,0,0,1,85,67.37Z" fill="#98e1e2"/><path d="M80.76,55.44v10H19.24v-10Z" fill="#ffbe3d"/><path d="M80.76,37v2.59a3.08,3.08,0,0,0-2-.71h-.2a3.14,3.14,0,0,0-3.14,3.14,3.18,3.18,0,0,1-.92,2.22,3.14,3.14,0,0,1-2.22.92h-.21a3.14,3.14,0,0,1-3.14-3.14,3.14,3.14,0,0,0-3.14-3.14h-.21a3.15,3.15,0,0,0-3.14,3.14,3.14,3.14,0,0,1-3.14,3.14H59.1A3.15,3.15,0,0,1,56,42.05a3.14,3.14,0,0,0-3.13-3.14h-.21a3.14,3.14,0,0,0-3.14,3.14,3.14,3.14,0,0,1-3.14,3.14h-.21A3.15,3.15,0,0,1,43,42.05a3.14,3.14,0,0,0-3.14-3.14h-.21a3.15,3.15,0,0,0-3.14,3.14,3.14,3.14,0,0,1-3.14,3.14h-.21A3.15,3.15,0,0,1,30,42.05a3.14,3.14,0,0,0-3.13-3.14h-.21a3.14,3.14,0,0,0-3.14,3.14,3.14,3.14,0,0,1-3.14,3.14h-.21a2.89,2.89,0,0,1-.94-.15V37a6.28,6.28,0,0,1,6.28-6.28h49A6.28,6.28,0,0,1,80.76,37Z" fill="#603813"/><ellipse cx="32.52" cy="36.41" rx="1.69" ry="1.96" fill="#ffe500"/><ellipse cx="65.44" cy="34.36" rx="1.99" ry="2.31" fill="#ffe500"/><path d="M50.26,36.59h0a.86.86,0,0,1-.11-1.08l2.28-3.4a.6.6,0,0,1,.93-.14h0a.86.86,0,0,1,.11,1.08l-2.28,3.41A.61.61,0,0,1,50.26,36.59Z" fill="#00f5bc"/><path d="M45.24,35.68h0a.86.86,0,0,1,0-1.09l1.31-1.53a.59.59,0,0,1,.93,0h0a.86.86,0,0,1,0,1.09l-1.31,1.53A.59.59,0,0,1,45.24,35.68Z" fill="#00f5bc"/><path d="M25.67,35.69h0a.86.86,0,0,1,0-1.09L27,33.07a.6.6,0,0,1,.94,0h0a.89.89,0,0,1,0,1.09L26.6,35.69A.59.59,0,0,1,25.67,35.69Z" fill="#00f5bc"/><path d="M71.65,40.84h0a.66.66,0,0,1-.79-.57L70,36.08a.78.78,0,0,1,.48-.93h0a.66.66,0,0,1,.8.57l.87,4.19A.78.78,0,0,1,71.65,40.84Z" fill="#00f5bc"/><path d="M75.69,35.58h0a.61.61,0,0,1-.9-.28l-.93-1.87a.85.85,0,0,1,.24-1h0a.62.62,0,0,1,.91.28l.93,1.87A.84.84,0,0,1,75.69,35.58Z" fill="#00f5bc"/><path d="M47.28,43.1h0a.6.6,0,0,1-.92-.21L44.3,39.31a.85.85,0,0,1,.18-1.07h0a.62.62,0,0,1,.92.21L47.46,42A.83.83,0,0,1,47.28,43.1Z" fill="#bf8df2"/><path d="M20.41,40.45h0a.86.86,0,0,1,.05-1.09l1.38-1.43a.59.59,0,0,1,.93.06h0a.83.83,0,0,1-.05,1.08l-1.38,1.44A.59.59,0,0,1,20.41,40.45Z" fill="#bf8df2"/><path d="M57,38.3h0a.89.89,0,0,1,0-1.09l2.63-3.05a.59.59,0,0,1,.93,0h0a.86.86,0,0,1,0,1.09L58,38.3A.6.6,0,0,1,57,38.3Z" fill="#bf8df2"/><path d="M40.47,36.66h0a.61.61,0,0,1-.94-.06L38.3,35a.85.85,0,0,1,.05-1.08h0a.59.59,0,0,1,.93.06l1.24,1.6A.87.87,0,0,1,40.47,36.66Z" fill="#bf8df2"/><path d="M85,67.37a1.87,1.87,0,0,1-1.88,1.88H66.55a30.5,30.5,0,0,0,2.25-3.77,33,33,0,0,0,3.22-10A33.58,33.58,0,0,0,72,45.18,32.81,32.81,0,0,0,65.8,30.75h8.68A6.28,6.28,0,0,1,80.77,37V65.48h2.34a1.89,1.89,0,0,1,1.34.56A1.87,1.87,0,0,1,85,67.37Z" opacity="0.1"/></g></g></svg>