<svg xmlns="http://www.w3.org/2000/svg" viewBox="0 0 100 100"><title>Doughnut</title><g id="Layer_2" data-name="Layer 2"><g id="Layer_1-2" data-name="Layer 1"><path d="M84.28,50v-.4c0-.1,0-.2,0-.3V49.1l0-.39c0-.08,0-.15,0-.23,0-.48-.08-1-.15-1.43,0-.21,0-.43-.09-.65l-.09-.57c0-.06,0-.13,0-.18s-.06-.32-.1-.47-.08-.41-.13-.61L83.48,44c0-.16-.09-.31-.13-.47l-.09-.31c-.06-.21-.13-.41-.2-.61C78.84,29.9,64.29,24.74,47.43,26.4l-1,.11-1.37.17-.77.11-.44.06-.52.09-.57.1-.76.13-.75.15-.75.15c-.74.16-1.47.34-2.19.53l-.5.13-.93.26-.54.16c-.69.2-1.37.43-2,.66l-.52.19-.37.14a6.62,6.62,0,0,0-.62.24l-.66.26c-.73.3-1.44.61-2.13.94l-.56.27h0a6.54,6.54,0,0,0-.59.3c-.17.08-.33.17-.49.26s-.29.15-.43.23l-.51.29-.56.33-.62.38-.61.39-.59.4q-1.23.85-2.34,1.8l-.4.34s0,0,0,.05l-.37.34c-.23.2-.45.41-.67.63l-.27.27a25.1,25.1,0,0,0-2.24,2.61l-.35.48c-.09.13-.18.25-.26.38A1.5,1.5,0,0,0,18,41l-.26.4-.27.43-.14.25c-.06.09-.11.18-.16.27l-.27.5c-.1.19-.2.38-.29.57s-.13.26-.19.4c-.21.45-.41.9-.58,1.37l-.21.55s0,0,0,0l-.13.39c0,.09-.06.19-.1.28l-.06.21c0,.14-.09.29-.13.44l-.06.22c0,.13-.07.25-.1.38s-.05.22-.08.33a1.42,1.42,0,0,0-.05.22c0,.17-.07.33-.11.5s-.07.39-.11.58v.05c-.05.34-.11.69-.15,1,0,.09,0,.19,0,.27s0,.35-.06.52,0,.46-.05.69,0,.22,0,.34,0,.25,0,.38a1.09,1.09,0,0,0,0,.18c0,.22,0,.44,0,.66s0,.52,0,.78,0,.38,0,.56,0,.4,0,.6,0,.56.08.83a5.23,5.23,0,0,0,.06.57l.06.46c0,.14,0,.28.07.42a.59.59,0,0,0,0,.13h0c0,.34.12.68.19,1s.09.4.13.6a.74.74,0,0,1,0,.14c0,.18.09.37.14.55l.18.63c.12.38.24.76.38,1.13.07.18.13.36.2.53l.18.44h0c.06.15.13.31.2.46s.14.32.21.48a20.56,20.56,0,0,0,1.2,2.16c.1.16.2.32.31.47s.23.34.35.5a4.54,4.54,0,0,0,.36.5l.3.38c0,.07.1.13.15.2l.32.38.4.46.35.38c.34.35.69.7,1,1l.37.34.47.4.49.41.48.37.51.37.48.34.14.09.85.55.12.07A28.27,28.27,0,0,0,28.66,75c1,.44,2.07.84,3.16,1.19s2.22.66,3.38.91l.7.16.43.08a44.37,44.37,0,0,0,5.41.71c.93.07,1.88.11,2.83.13a1.92,1.92,0,0,0,.24,0c1.2,0,2.42,0,3.65-.06,1,0,1.93-.12,2.92-.22l.7-.07.71-.09.7-.08c.75-.1,1.49-.21,2.22-.34q.8-.13,1.59-.3l.81-.17.8-.18h0l.8-.2c.27-.06.53-.13.8-.21s.52-.14.78-.21l.77-.23.61-.19h0l.72-.23.57-.2C65,74.78,66.05,74.39,67,74l.47-.21c.59-.26,1.16-.54,1.72-.83h0l.5-.25.53-.29.53-.3c.52-.29,1-.61,1.53-.93l.5-.32.48-.33A28.8,28.8,0,0,0,76.38,68l.4-.37c.3-.28.59-.57.87-.86.13-.14.26-.27.38-.41s.25-.27.38-.41q.59-.66,1.11-1.35l.27-.36.32-.45c.11-.14.21-.3.31-.45a14.69,14.69,0,0,0,.9-1.46c.08-.13.16-.27.23-.41a18.88,18.88,0,0,0,1-2,2.75,2.75,0,0,0,.15-.36c.08-.2.16-.4.23-.6s.22-.63.32-1l.12-.38a1.21,1.21,0,0,0,0-.18c0-.13.08-.26.11-.4s.09-.32.12-.48h0c.07-.25.12-.5.17-.75a3.73,3.73,0,0,0,.09-.46l.05-.29a1.55,1.55,0,0,0,0-.21c0-.13,0-.26.06-.39s.07-.46.09-.7,0-.45.07-.68c0,0,0,0,0-.08,0-.2,0-.4,0-.61l0-.79c0-.24,0-.48,0-.73S84.29,50.12,84.28,50ZM47.5,38c6.06-.73,11.17.92,11.57,5.37a5.63,5.63,0,0,1,0,1.3,5.81,5.81,0,0,1-.28,1.09c-1.13,3.1-5.1,5.13-10,5.72-5.38.64-10.07-.67-11.33-4.08a4.64,4.64,0,0,1-.16-.53,5.84,5.84,0,0,1-.15-.87C36.73,41.58,41.44,38.75,47.5,38Z" fill="#ffbe3d"/><path d="M84.28,50v-.4c0-.1,0-.2,0-.3V49.1l0-.39c0-.08,0-.15,0-.23,0-.48-.08-1-.15-1.43,0-.21,0-.43-.09-.65l-.09-.57c0-.06,0-.13,0-.18s-.06-.32-.1-.47-.08-.41-.13-.61L83.48,44c0-.16-.09-.31-.13-.47l-.09-.31c-.06-.21-.13-.41-.2-.61C78.84,29.9,64.29,24.74,47.43,26.4l-1,.11-1.37.17-.77.11-.44.06-.52.09-.57.1-.76.13-.75.15-.75.15c-.74.16-1.47.34-2.19.53l-.5.13-.93.26-.54.16c-.69.2-1.37.43-2,.66l-.52.19-.37.14a6.62,6.62,0,0,0-.62.24l-.66.26c-.73.3-1.44.61-2.13.94l-.56.27h0a6.54,6.54,0,0,0-.59.3c-.17.08-.33.17-.49.26s-.29.15-.43.23l-.51.29-.56.33-.62.38-.61.39-.59.4q-1.23.85-2.34,1.8l-.4.34s0,0,0,.05l-.37.34c-.23.2-.45.41-.67.63l-.27.27a25.1,25.1,0,0,0-2.24,2.61l-.35.48c-.09.13-.18.25-.26.38A1.5,1.5,0,0,0,18,41l-.26.4-.27.43-.14.25c-.06.09-.11.18-.16.27l-.27.5c-.1.19-.2.38-.29.57s-.13.26-.19.4c-.21.45-.41.9-.58,1.37l-.21.55s0,0,0,0l-.13.39c0,.09-.06.19-.1.28l-.06.21c0,.14-.09.29-.13.44l-.06.22c0,.13-.07.25-.1.38s-.05.22-.08.33a1.42,1.42,0,0,0-.05.22c0,.17-.07.33-.11.5s-.07.39-.11.58v.05c-.05.34-.11.69-.15,1,0,.09,0,.19,0,.27s0,.35-.06.52,0,.46-.05.69,0,.22,0,.34,0,.25,0,.38a1.09,1.09,0,0,0,0,.18c0,.22,0,.44,0,.66s0,.52,0,.78,0,.38,0,.56,0,.4,0,.6,0,.56.08.83a5.23,5.23,0,0,0,.06.57l.06.46c0,.14,0,.28.07.42a.59.59,0,0,0,0,.13h0a4.76,4.76,0,0,0,1.41,1.67c2.82,2,5.8-1.44,9.23.65,3.65,2.21,2.87,7.69,5.88,8.46,2.54.65,4.08-3,7.55-2.28,1.86.4,1.76,1.54,3.64,2,3,.66,4.18-2,7.83-2.6,3.18-.56,3.28,1.26,7.27,1.3,4.15,0,7.46-1.89,9.79-3.25,4-2.35,4.31-3.87,7.55-5.21,3.67-1.52,5.41.58,7.56-1a5.2,5.2,0,0,0,1.26-1.35h0c.07-.25.12-.5.17-.75a3.73,3.73,0,0,0,.09-.46l.05-.29a1.55,1.55,0,0,0,0-.21c0-.13,0-.26.06-.39s.07-.46.09-.7,0-.45.07-.68c0,0,0,0,0-.08,0-.2,0-.4,0-.61l0-.79c0-.24,0-.48,0-.73S84.29,50.12,84.28,50ZM59,44.7a5.81,5.81,0,0,1-.28,1.09c-1.13,3.1-5.1,5.13-10,5.72-5.38.64-10.07-.67-11.33-4.08a4.64,4.64,0,0,1-.16-.53,5.84,5.84,0,0,1-.15-.87c-.39-4.45,4.32-7.28,10.38-8S58.67,39,59.07,43.4A5.63,5.63,0,0,1,59,44.7Z" fill="#603813"/><path d="M59,44.7a5.81,5.81,0,0,1-.28,1.09,4.43,4.43,0,0,0-.61-1.16c-1.78-2.52-5.93-3.4-10.65-2.83-4.54.54-8.33,2.26-9.77,5a5.71,5.71,0,0,0-.3.67,4.64,4.64,0,0,1-.16-.53,5.84,5.84,0,0,1-.15-.87c-.39-4.45,4.32-7.28,10.38-8S58.67,39,59.07,43.4A5.63,5.63,0,0,1,59,44.7Z" fill="#ffbe3d"/><ellipse cx="26.27" cy="49.51" rx="2.38" ry="2.77" fill="#ffe500"/><ellipse cx="34.52" cy="36.66" rx="1.12" ry="1.3" fill="#fffef2"/><ellipse cx="62.78" cy="35.36" rx="2.8" ry="3.25" fill="#ffe500"/><ellipse cx="53.26" cy="59.11" rx="1.12" ry="1.3" fill="#fffef2"/><ellipse cx="74.1" cy="47.23" rx="1.82" ry="2.12" fill="#fffef2"/><path d="M40,35.68h0a1.21,1.21,0,0,1-.16-1.52L43,29.36a.85.85,0,0,1,1.31-.18h0a1.21,1.21,0,0,1,.16,1.52L41.3,35.49A.85.85,0,0,1,40,35.68Z" fill="#00f5bc"/><path d="M63.9,47.07h0a1.21,1.21,0,0,1,0-1.54l1.84-2.14a.84.84,0,0,1,1.32,0h0a1.19,1.19,0,0,1,0,1.53l-1.84,2.15A.85.85,0,0,1,63.9,47.07Z" fill="#00f5bc"/><path d="M57.46,59.76h0a1.23,1.23,0,0,1,0-1.54l1.85-2.14a.84.84,0,0,1,1.32,0h0a1.22,1.22,0,0,1,0,1.53l-1.85,2.15A.85.85,0,0,1,57.46,59.76Z" fill="#00f5bc"/><path d="M32.09,60h0a.93.93,0,0,1-1.12-.8l-1.23-5.9A1.11,1.11,0,0,1,30.43,52h0a.93.93,0,0,1,1.12.8l1.23,5.9A1.1,1.1,0,0,1,32.09,60Z" fill="#00f5bc"/><path d="M78.63,42.71h0a.87.87,0,0,1-1.28-.4l-1.3-2.63a1.18,1.18,0,0,1,.34-1.48h0a.86.86,0,0,1,1.27.4L79,41.23A1.19,1.19,0,0,1,78.63,42.71Z" fill="#00f5bc"/><path d="M30.16,44.85h0a.86.86,0,0,1-1.3-.29L26,39.51a1.2,1.2,0,0,1,.26-1.5h0a.85.85,0,0,1,1.29.29l2.91,5.05A1.19,1.19,0,0,1,30.16,44.85Z" fill="#bf8df2"/><path d="M67.08,58.85h0a.85.85,0,0,1-1.29-.3l-2.91-5a1.2,1.2,0,0,1,.25-1.5h0a.86.86,0,0,1,1.3.3l2.91,5A1.21,1.21,0,0,1,67.08,58.85Z" fill="#bf8df2"/><path d="M17.66,52.39h0a1.21,1.21,0,0,1,.07-1.53l1.94-2a.85.85,0,0,1,1.32.08h0a1.22,1.22,0,0,1-.07,1.54l-2,2A.84.84,0,0,1,17.66,52.39Z" fill="#bf8df2"/><path d="M41.06,62h0a1.23,1.23,0,0,1,0-1.54l3.69-4.29a.84.84,0,0,1,1.32,0h0a1.19,1.19,0,0,1,0,1.53L42.38,62A.85.85,0,0,1,41.06,62Z" fill="#bf8df2"/><path d="M57.18,35.78h0a.84.84,0,0,1-1.31-.09l-1.75-2.26a1.21,1.21,0,0,1,.08-1.53h0a.84.84,0,0,1,1.31.08l1.74,2.27A1.19,1.19,0,0,1,57.18,35.78Z" fill="#bf8df2"/><path d="M83.62,56.13c0,.16-.08.33-.12.48s-.07.27-.11.4a1.21,1.21,0,0,1,0,.18l-.12.38c-.1.32-.21.64-.32,1s-.15.4-.23.6a2.75,2.75,0,0,1-.15.36,19.6,19.6,0,0,1-1,2c-1.81.64-3.55-.78-6.74.54s-3.54,2.86-7.55,5.21c-2.34,1.36-5.64,3.3-9.79,3.25-4,0-4.09-1.86-7.28-1.3-3.64.64-4.86,3.26-7.83,2.6-1.87-.41-1.77-1.55-3.63-2-3.47-.75-5,2.93-7.56,2.28-3-.77-2.22-6.25-5.87-8.46-3.37-2.05-6.31,1.25-9.09-.56a2.52,2.52,0,0,1-.12-.29h0l-.18-.44c-.07-.17-.13-.35-.2-.53-.14-.37-.26-.75-.38-1.13l-.18-.63c-.05-.18-.1-.37-.14-.55a.74.74,0,0,0,0-.14c0-.2-.09-.4-.13-.6s-.14-.68-.19-1a4.76,4.76,0,0,0,1.41,1.67c2.82,2,5.8-1.44,9.23.65,3.65,2.21,2.87,7.69,5.88,8.46,2.54.65,4.08-3,7.55-2.28,1.86.4,1.76,1.54,3.64,2,3,.66,4.18-2,7.83-2.6,3.18-.56,3.28,1.26,7.27,1.3,4.15,0,7.46-1.89,9.79-3.25,4-2.35,4.31-3.87,7.55-5.21,3.67-1.52,5.41.58,7.56-1A5.2,5.2,0,0,0,83.62,56.13Z" fill="#ff8911" opacity="0.5"/><circle cx="50" cy="50" r="50" fill="none"/></g></g></svg>