<svg id="Layer_1" enable-background="new 0 0 512.029 512.029" height="512" viewBox="0 0 512.029 512.029" width="512" xmlns="http://www.w3.org/2000/svg"><g><g><path d="m276.685 242.36c-.068 5.522 4.354 10.054 9.877 10.121.042.001.083.001.125.001 5.466 0 9.93-4.397 9.997-9.878.462-37.794-14.443-70.566-46.91-103.137-3.9-3.912-10.231-3.922-14.142-.022-3.912 3.898-3.922 10.23-.023 14.142 28.805 28.898 41.473 56.276 41.076 88.773z"/><path d="m471.905 126.841c-20.185-13.914-46.937-17.346-79.513-10.201-24.278 5.324-51.64 16.686-79.625 32.989-1.315-2.09-2.668-4.16-4.076-6.199-24.803-35.958-74.502-78.02-123.669-104.664-61.236-33.188-112.976-39.055-145.695-16.525-32.698 22.541-45.639 72.975-36.438 142.013 7.387 55.423 28.986 116.844 53.745 152.834 25.641 37.285 64.992 63.216 107.965 71.144 1.92.354 3.84.662 5.758.944 8.977 36.232 30.146 67.275 60.169 87.978 25.001 17.223 54.117 26.108 84.389 26.108 11.48 0 23.134-1.279 34.783-3.867 42.111-9.354 79.214-34.726 104.475-71.44 25.293-36.777 47.357-99.533 54.904-156.159 9.395-70.496-3.808-121.976-37.172-144.955zm-303.677 241.723c-37.792-6.972-72.459-29.864-95.115-62.81-23.137-33.632-43.39-91.559-50.399-144.143-3.468-26.023-3.534-49.146-.424-68.469 2.53 19.05 7.708 39.153 13.398 57.279 15.281 48.794 40.45 102.543 64.121 136.934 1.939 2.817 5.066 4.331 8.246 4.331 1.955 0 3.93-.572 5.661-1.764 4.549-3.132 5.699-9.357 2.567-13.907-22.284-32.375-47.003-85.249-61.512-131.577-16.405-52.262-18.635-91.408-6.189-103.94 5.028 2.534 22.12 13.989 66.277 64.986 30.767 35.532 64.983 79.285 87.17 111.465 1.94 2.813 5.064 4.324 8.242 4.324 1.957 0 3.935-.573 5.667-1.769 4.547-3.135 5.691-9.362 2.557-13.909-24.207-35.107-62.328-83.521-94.858-120.468-18.322-20.809-33.835-36.894-46.111-47.809-2.722-2.42-5.346-4.654-7.879-6.666 5.379-1.214 11.195-1.821 17.406-1.821 24.396 0 54.839 9.309 88.439 27.518 46.647 25.279 93.56 64.837 116.738 98.439 22.705 32.885 31.745 73.423 24.803 111.219-6.27 34.137-24.819 63.404-52.249 82.477-3.088.058-14.693-4.456-37.081-26.317-20.21-19.734-43.07-47.642-64.367-78.58-12.234-17.776-26.916-40.915-41.341-65.153-2.824-4.745-8.962-6.304-13.708-3.479s-6.304 8.962-3.479 13.708c14.643 24.604 29.577 48.137 42.053 66.265 29.612 43.017 67.875 87.894 96.228 105.623-15.736 6.79-32.786 10.282-50.292 10.281-8.118-.001-16.341-.751-24.569-2.268zm321.024-99.41c-7.168 53.787-27.888 113.05-51.557 147.466-22.384 32.533-55.176 54.997-92.335 63.251-36.878 8.193-73.632 1.379-103.484-19.185-24.175-16.67-41.732-41.16-50.339-69.864.434.004.869.015 1.302.015 7.356 0 14.646-.539 21.823-1.598 7.483 21.665 21.199 39.791 40.071 52.791 17.907 12.34 38.25 18.646 59.727 18.646 6.896 0 13.91-.651 20.995-1.96 33.357-6.164 63.817-26.191 83.565-54.937 9.123-13.242 17.648-30.131 25.339-50.198 1.976-5.157-.602-10.94-5.759-12.917-5.156-1.975-10.94.603-12.917 5.759-7.125 18.591-14.908 34.071-23.14 46.021-16.524 24.053-42.962 41.475-70.722 46.604-23.817 4.398-46.549-.263-65.74-13.488-14.647-10.089-25.462-24.023-31.705-40.655 14.633-4.285 28.563-10.848 41.318-19.64l-.002.002c32.077-22.099 53.746-56.067 61.016-95.647 3.687-20.074 3.421-40.805-.524-60.993 22.551-14.054 43.691-23.85 62.918-29.13 18.668-5.148 30.46-5.414 37.108-.834 6.646 4.578 10.6 15.684 12.442 34.947 1.354 14.188.871 30.473-1.437 48.4-.706 5.478 3.163 10.49 8.641 11.195.434.056.864.083 1.29.083 4.954 0 9.256-3.68 9.905-8.724 2.499-19.403 3.006-37.187 1.51-52.857-2.482-25.947-8.96-41.218-21.006-49.516-12.048-8.298-28.631-8.907-53.759-1.979-19.521 5.361-40.622 14.833-62.859 28.182-2.353-7.232-5.202-14.332-8.512-21.248 58.676-34.317 109.911-43.291 138.136-23.837 26.461 18.228 36.92 64.097 28.691 125.845z"/><path d="m448.598 297.114c-5.523 0-10 4.506-10 10.028s4.477 10 10 10 10-4.478 10-10v-.058c0-5.522-4.477-9.97-10-9.97z"/></g></g></svg>