<?xml version="1.0" encoding="iso-8859-1"?>
<!-- Generator: Adobe Illustrator 19.0.0, SVG Export Plug-In . SVG Version: 6.00 Build 0)  -->
<svg version="1.1" id="Capa_1" xmlns="http://www.w3.org/2000/svg" xmlns:xlink="http://www.w3.org/1999/xlink" x="0px" y="0px"
	 viewBox="0 0 512 512" style="enable-background:new 0 0 512 512;" xml:space="preserve">
<g>
	<g>
		<path d="M449.852,38.271v-1.125C449.852,16.663,433.189,0,412.707,0h-312.32C79.905,0,63.242,16.663,63.242,37.145v1.124
			c0,17.985,12.843,33.023,29.837,36.428v24.805c-17.718,4.251-30.931,20.217-30.931,39.219V450.58
			c0,33.867,27.553,61.42,61.42,61.42h264.865c33.866,0,61.42-27.553,61.42-61.42V138.722c0-18.61-12.67-34.309-29.837-38.943
			v-25.08C437.009,71.292,449.852,56.255,449.852,38.271z M429.774,450.58c0,22.796-18.545,41.341-41.341,41.341H123.568
			c-22.796,0-41.341-18.545-41.341-41.341V213.677c7.584,5.294,16.795,8.411,26.724,8.411c14.9,0,28.186-7.006,36.764-17.887
			c8.578,10.88,21.863,17.887,36.764,17.887s28.186-7.006,36.764-17.887c8.578,10.88,21.863,17.887,36.764,17.887
			c14.9,0,28.186-7.006,36.764-17.887c8.578,10.88,21.863,17.887,36.764,17.887c14.899,0,28.185-7.005,36.763-17.886
			c8.576,10.88,21.858,17.886,36.755,17.886c9.93,0,19.141-3.117,26.724-8.411V450.58z M429.774,138.722v36.573
			c0,14.731-11.988,26.714-26.724,26.714c-14.731,0-26.714-11.985-26.714-26.714c0-5.545-4.495-10.039-10.039-10.039
			s-10.039,4.495-10.039,10.039c0,14.731-11.988,26.714-26.724,26.714c-14.737,0-26.724-11.985-26.724-26.714
			c0-5.545-4.495-10.039-10.039-10.039c-5.545,0-10.039,4.495-10.039,10.039c0,14.731-11.989,26.714-26.724,26.714
			c-14.736,0-26.724-11.985-26.724-26.714c0-5.545-4.495-10.039-10.039-10.039c-5.545,0-10.039,4.495-10.039,10.039
			c0,14.731-11.989,26.714-26.724,26.714c-14.736,0-26.724-11.985-26.724-26.714c0-5.545-4.495-10.039-10.039-10.039
			c-5.545,0-10.039,4.495-10.039,10.039c0,14.731-11.989,26.714-26.724,26.714c-14.736,0-26.724-11.985-26.724-26.714v-36.573
			c0-11.171,9.089-20.259,20.259-20.259h0.632h306.397C420.685,118.463,429.774,127.551,429.774,138.722z M113.157,98.384v-22.96
			h286.78v22.96H113.157z M412.707,55.346h-312.32c-9.411,0-17.067-7.66-17.067-17.077v-1.124c0-9.411,7.656-17.067,17.067-17.067
			h312.32c9.411,0,17.067,7.656,17.067,17.067v1.124C429.774,47.685,422.118,55.346,412.707,55.346z"/>
	</g>
</g>
<g>
	<g>
		<path d="M398.823,255.187H113.177c-5.545,0-10.039,4.495-10.039,10.039v184.511c0,11.725,9.538,21.263,21.263,21.263h263.198
			c11.725,0,21.263-9.538,21.263-21.263V265.226C408.862,259.681,404.368,255.187,398.823,255.187z M388.784,449.737
			c0,0.665-0.52,1.185-1.185,1.185H124.401c-0.654,0-1.185-0.531-1.185-1.185V275.265h265.567V449.737z"/>
	</g>
</g>
<g>
	<g>
		<path d="M217.691,299.55h-68.664c-5.545,0-10.039,4.495-10.039,10.039s4.495,10.039,10.039,10.039h68.664
			c5.545,0,10.039-4.495,10.039-10.039S223.236,299.55,217.691,299.55z"/>
	</g>
</g>
<g>
	<g>
		<path d="M248.144,298.935c-12.919,0-12.941,20.078,0,20.078C261.064,319.013,261.085,298.935,248.144,298.935z"/>
	</g>
</g>
<g>
</g>
<g>
</g>
<g>
</g>
<g>
</g>
<g>
</g>
<g>
</g>
<g>
</g>
<g>
</g>
<g>
</g>
<g>
</g>
<g>
</g>
<g>
</g>
<g>
</g>
<g>
</g>
<g>
</g>
</svg>
