<svg xmlns="http://www.w3.org/2000/svg" viewBox="0 0 425.29 512.34"><g id="Layer_2" data-name="Layer 2"><g id="Capa_1" data-name="Capa 1"><path d="M357.74,39.07,305.33,8.86,252.91,39.07,200.5,8.86,148.09,39.07,80.67.22V402.83H.13v54.11a55.33,55.33,0,0,0,55.28,55.28H369.88a55.34,55.34,0,0,0,55.28-55.28V.22ZM55.41,482.19a25.28,25.28,0,0,1-25.26-25.25V432.85H314.6v24.09a55,55,0,0,0,6.11,25.25Zm314.47,0a25.28,25.28,0,0,1-25.26-25.25V402.83H110.69V52.16l37.4,21.56,52.41-30.2,52.41,30.2,52.42-30.21,52.41,30.21,37.4-21.56V456.94h0A25.28,25.28,0,0,1,369.88,482.19Z" fill="#fff" stroke="#000" stroke-miterlimit="10" stroke-width="0.25"/><rect x="140.71" y="135.71" width="224.41" height="30.02" fill="#fff"/><rect x="140.71" y="192.96" width="224.41" height="30.02" fill="#fff"/><rect x="140.71" y="250.21" width="112.2" height="30.02" fill="#fff"/></g></g></svg>