<svg xmlns="http://www.w3.org/2000/svg" viewBox="0 0 100 100"><title>Pasteries</title><g id="Layer_2" data-name="Layer 2"><g id="Layer_1-2" data-name="Layer 1"><polygon points="84.94 40.65 84.94 54.9 15 68.94 15 54.68 15.93 53.83 84.94 40.65" fill="#f0ecec"/><polygon points="84.94 54.9 84.94 68.94 62.85 73.36 15 82.97 15 68.94 84.94 54.9" fill="#ffbe3d"/><path d="M84.94,41v.18l-2.74.53a1.56,1.56,0,0,0-1.27,1.53V53.56a3.94,3.94,0,0,1-4.21,4,3.89,3.89,0,0,1-3.58-3.88V46.52a2.56,2.56,0,0,0-3-2.51h0A2.55,2.55,0,0,0,68,46.52V66.71a4,4,0,0,1-8,0V48.12a1.78,1.78,0,0,0-2.12-1.75l-.22.05a1.77,1.77,0,0,0-1.44,1.75v5.69a3.12,3.12,0,1,1-6.24,0v-3.8a1.78,1.78,0,0,0-2.12-1.75l-.22,0a1.78,1.78,0,0,0-1.45,1.75V63.93A4.07,4.07,0,0,1,42.31,68a4,4,0,0,1-4.14-4V52.89a2.23,2.23,0,0,0-2.65-2.19h0a2.24,2.24,0,0,0-1.81,2.19V62.1a3.12,3.12,0,0,1-6.24,0V53.61a1.11,1.11,0,0,0-1.32-1.09L15,54.67s0,0,0,0l.9-.83,24-21.72,14.78-13.4h0l.59-.17c.6-.18,1.21-.33,1.84-.46,12.66-2.59,25,5.19,27.45,17.38A18.61,18.61,0,0,1,84.94,41Z" fill="#603813"/><path d="M46.62,25.27l1.69-7.47A.67.67,0,1,0,47,17.61l-1.7,7.47a.67.67,0,0,0,.57.75.68.68,0,0,0,.76-.56Z" fill="#42210b"/><circle cx="44.63" cy="29.73" r="8.24" fill="#d31b1a"/><circle cx="50" cy="50" r="50" fill="none"/></g></g></svg>