<svg xmlns="http://www.w3.org/2000/svg" viewBox="0 0 100 100"><title>Pie</title><g id="Layer_2" data-name="Layer 2"><g id="Layer_1-2" data-name="Layer 1"><path d="M70.29,78.54H29.71a5.49,5.49,0,0,1-5.42-4.64L22.34,61.39a5.48,5.48,0,0,1,5.42-6.33H72.24a5.48,5.48,0,0,1,5.42,6.33l-2,12.51A5.49,5.49,0,0,1,70.29,78.54Z" fill="#b3814b"/><path d="M85,57.11a7.15,7.15,0,0,1-.14,1.4A7,7,0,0,1,71,57.11a7,7,0,0,1-14,0,7,7,0,0,1-14,0,7,7,0,0,1-14,0,7,7,0,1,1-7-7,6.62,6.62,0,0,1,1.34.13,39.82,39.82,0,0,1,54.37-.13H78A7,7,0,0,1,85,57.11Z" fill="#ffbe3d"/><path d="M85,57.11a7.15,7.15,0,0,1-.14,1.4A7,7,0,0,1,78,64.11c-.26,0-.51,0-.76,0L75.71,73.9a5.49,5.49,0,0,1-5.42,4.64H67.64A31.2,31.2,0,0,0,70.8,58.77a30.31,30.31,0,0,0-.86-3.71,31.09,31.09,0,0,0-9.07-14.25,40.79,40.79,0,0,1,16.84,9.3H78A7,7,0,0,1,85,57.11Z" opacity="0.1"/><rect x="48.92" y="43.22" width="2.15" height="7.75" rx="1.08" fill="#805f1f"/><rect x="38.99" y="45.23" width="7.39" height="2.15" rx="1.08" transform="translate(-20.21 49.63) rotate(-50.35)" fill="#805f1f"/><rect x="56.7" y="42.89" width="2.15" height="7.01" rx="1.08" transform="translate(-15.46 35.1) rotate(-30)" fill="#805f1f"/><path d="M46.06,36h0a2.91,2.91,0,0,1-2.11-1.45,4.7,4.7,0,0,1-.72-3.93,3.58,3.58,0,0,1,1.61-1.84c.5-.35.78-.56.85-.92.14-.71-.63-1.73-2.16-2.87a.59.59,0,0,1-.12-.83A.6.6,0,0,1,44.2,24c2,1.49,2.84,2.81,2.61,4a2.62,2.62,0,0,1-1.35,1.67A2.64,2.64,0,0,0,44.31,31a3.55,3.55,0,0,0,.58,2.89,1.87,1.87,0,0,0,1.2.93.59.59,0,0,1,0,1.18Z"/><path d="M51.88,37.18h0a3.71,3.71,0,0,1-2.67-1.85,6,6,0,0,1-.93-5.07,4.65,4.65,0,0,1,2.06-2.36c.69-.47,1.12-.79,1.23-1.35.19-1-.83-2.43-3-4a.6.6,0,0,1-.12-.83.59.59,0,0,1,.83-.12c2.59,1.94,3.71,3.64,3.42,5.19A3.38,3.38,0,0,1,51,28.88a3.5,3.5,0,0,0-1.61,1.76,4.92,4.92,0,0,0,.79,4A2.65,2.65,0,0,0,51.92,36a.59.59,0,0,1,0,1.18Z"/><path d="M56.46,35.41h0A2.91,2.91,0,0,1,54.32,34,4.71,4.71,0,0,1,53.6,30a3.59,3.59,0,0,1,1.6-1.83c.51-.35.79-.56.86-.92.13-.71-.64-1.73-2.16-2.87a.59.59,0,0,1,.7-.95c2,1.49,2.85,2.81,2.62,4a2.62,2.62,0,0,1-1.35,1.67,2.5,2.5,0,0,0-1.15,1.25,3.55,3.55,0,0,0,.58,2.89,1.87,1.87,0,0,0,1.2.93.59.59,0,0,1,.55.63A.58.58,0,0,1,56.46,35.41Z"/><circle cx="50" cy="50" r="50" fill="none"/></g></g></svg>