<svg xmlns="http://www.w3.org/2000/svg" viewBox="0 0 100 100"><title>pizza</title><g id="Layer_2" data-name="Layer 2"><g id="Layer_1-2" data-name="Layer 1"><path d="M68.24,69.5H45.48a3.81,3.81,0,0,0-3.81,3.81v1.43a2.78,2.78,0,0,1-5.55,0V73.31a3.82,3.82,0,0,0-3.81-3.81h-3.6v.61a1.85,1.85,0,1,1-3.7,0V69.5H15v-.07L52.62,31.8a3.81,3.81,0,0,1,5.56.17A57.12,57.12,0,0,1,72.06,65.43,3.82,3.82,0,0,1,68.24,69.5Z" fill="#ffbe3d"/><path d="M80.37,70.11h0a4.62,4.62,0,0,1-4.6-4.31A60.84,60.84,0,0,0,61,30.16a4.62,4.62,0,0,1,.19-6.31h0a4.62,4.62,0,0,1,6.74.2A70,70,0,0,1,85,65.21,4.62,4.62,0,0,1,80.37,70.11Z" fill="#c17038"/><circle cx="43.16" cy="50.55" r="2.78" fill="#d54522"/><circle cx="31.61" cy="61.83" r="4.63" fill="#d54522"/><circle cx="61.99" cy="66.41" r="1.85" fill="#d54522"/><circle cx="55.63" cy="40.92" r="3.7" fill="#d54522"/><circle cx="50.88" cy="59.01" r="3.7" fill="#d54522"/><circle cx="50" cy="50" r="50" fill="none"/></g></g></svg>