<svg xmlns="http://www.w3.org/2000/svg" viewBox="0 0 615 545"><title>Red velevt</title><g id="Layer_2" data-name="Layer 2"><g id="Layer_1-2" data-name="Layer 1"><path d="M615,157.5a85.2,85.2,0,0,1-7,33.5c-1.06,2.53-2.25,5-3.55,7.51-6.38,12.14-15.51,23.7-27.05,34.49q-3.52,3.3-7.34,6.5c-14.54,12.19-32.22,23.28-52.46,33-55,26.36-128.86,42.5-210.12,42.5S152.36,298.86,97.38,272.5c-20.24-9.72-37.92-20.81-52.46-33q-3.83-3.19-7.34-6.5c-11.54-10.79-20.67-22.35-27-34.49C9.23,196,8,193.53,7,191a85.2,85.2,0,0,1-7-33.5c0-.17,0-.33,0-.5C.53,70.25,138,0,307.5,0S614.47,70.25,615,157C615,157.17,615,157.33,615,157.5Z" fill="#c85257"/><path d="M615,387h0c0,.17,0,.33,0,.5,0,87-137.67,157.5-307.5,157.5S0,474.48,0,387.5c0-.17,0-.33,0-.5H0V321.5c0,45.37,37.45,86.25,97.38,115,55,26.36,128.86,42.5,210.12,42.5s155.14-16.14,210.12-42.5c59.93-28.75,97.38-69.63,97.38-115Z" fill="#963e41"/><path d="M615,157.5v67q0,3.78-.36,7.52a89.39,89.39,0,0,1-10.7,34.48q-1.77,3.28-3.81,6.51c-16.21,25.68-44.94,48.47-82.51,66.49-55,26.36-128.86,42.5-210.12,42.5S152.36,365.86,97.38,339.5c-37.57-18-66.3-40.81-82.51-66.49q-2-3.22-3.81-6.51A89.39,89.39,0,0,1,.36,232Q0,228.29,0,224.5v-67A85.2,85.2,0,0,0,7,191c1.06,2.53,2.25,5,3.55,7.51C16.91,210.65,26,222.21,37.58,233q3.53,3.3,7.34,6.5c14.54,12.19,32.22,23.28,52.46,33,55,26.36,128.86,42.5,210.12,42.5s155.14-16.14,210.12-42.5c20.24-9.72,37.92-20.81,52.46-33q3.82-3.19,7.34-6.5c11.54-10.79,20.67-22.35,27.05-34.49,1.3-2.47,2.49-5,3.55-7.51A85.2,85.2,0,0,0,615,157.5Z" fill="#963e41"/><path d="M615,239.5v69q0,3.27-.26,6.51c-3.39,42.76-40.07,81.12-97.12,108.49-55,26.36-128.86,42.5-210.12,42.5S152.36,449.86,97.38,423.5C40.33,396.13,3.65,357.77.26,315Q0,311.77,0,308.5v-69A85.63,85.63,0,0,0,7.41,274q1.42,3.28,3.12,6.51c15.09,28.74,45.66,54.23,86.85,74,55,26.36,128.86,42.5,210.12,42.5s155.14-16.14,210.12-42.5c41.19-19.76,71.76-45.25,86.85-74q1.69-3.22,3.12-6.51A85.63,85.63,0,0,0,615,239.5Z" fill="#963e41"/><path d="M615,321.5c0,45.37-37.45,86.25-97.38,115-55,26.36-128.86,42.5-210.12,42.5S152.36,462.86,97.38,436.5C37.45,407.75,0,366.87,0,321.5c0-.17,0-.33,0-.5,0-2,.1-4,.25-6,3.39,42.76,40.07,81.12,97.12,108.49,55,26.36,128.86,42.5,210.12,42.5s155.14-16.14,210.12-42.5c57-27.37,93.73-65.73,97.12-108.49.15,2,.24,4,.25,6C615,321.17,615,321.33,615,321.5Z" fill="#6e302a"/><path d="M615,239.5a85.63,85.63,0,0,1-7.41,34.5q-1.43,3.28-3.12,6.51c-15.09,28.74-45.66,54.23-86.85,74-55,26.36-128.86,42.5-210.12,42.5S152.36,380.86,97.38,354.5c-41.19-19.76-71.76-45.25-86.85-74Q8.84,277.29,7.41,274A85.63,85.63,0,0,1,0,239.5c0-.17,0-.33,0-.5q0-3.51.35-7a89.39,89.39,0,0,0,10.7,34.48q1.77,3.28,3.81,6.51c16.21,25.68,44.94,48.47,82.51,66.49,55,26.36,128.86,42.5,210.12,42.5s155.14-16.14,210.12-42.5c37.57-18,66.3-40.81,82.51-66.49q2-3.22,3.81-6.51A89.39,89.39,0,0,0,614.64,232q.33,3.47.35,7C615,239.17,615,239.33,615,239.5Z" fill="#6e302a"/><ellipse cx="26.56" cy="270.38" rx="5.46" ry="5.43" fill="#c85257"/><ellipse cx="82.12" cy="294.08" rx="5.46" ry="5.43" fill="#c85257"/><ellipse cx="76.17" cy="375.04" rx="5.46" ry="5.43" fill="#c85257"/><ellipse cx="47.4" cy="423.41" rx="5.46" ry="5.43" fill="#c85257"/><ellipse cx="173.38" cy="346.4" rx="5.46" ry="5.43" fill="#c85257"/><ellipse cx="145.61" cy="394.78" rx="5.46" ry="5.43" fill="#c85257"/><ellipse cx="98.98" cy="471.79" rx="5.46" ry="5.43" fill="#c85257"/><ellipse cx="161.48" cy="504.37" rx="5.46" ry="5.43" fill="#c85257"/><ellipse cx="178.33" cy="440.12" rx="5.46" ry="5.43" fill="#c85257"/><ellipse cx="253.74" cy="365.16" rx="5.46" ry="5.43" fill="#c85257"/><ellipse cx="221" cy="422.43" rx="5.46" ry="5.43" fill="#c85257"/><ellipse cx="208.1" cy="502.4" rx="5.46" ry="5.43" fill="#c85257"/><ellipse cx="292.42" cy="528.07" rx="5.46" ry="5.43" fill="#c85257"/><ellipse cx="304.33" cy="374.05" rx="5.46" ry="5.43" fill="#c85257"/><ellipse cx="309.29" cy="428.35" rx="5.46" ry="5.43" fill="#c85257"/><ellipse cx="308.11" cy="500.3" rx="5.46" ry="5.43" fill="#c85257"/><ellipse cx="379.72" cy="356.28" rx="5.46" ry="5.43" fill="#c85257"/><ellipse cx="389.64" cy="413.54" rx="5.46" ry="5.43" fill="#c85257"/><ellipse cx="417.42" cy="362.2" rx="5.46" ry="5.43" fill="#c85257"/><ellipse cx="469" cy="397.74" rx="5.46" ry="5.43" fill="#c85257"/><ellipse cx="399.56" cy="525.11" rx="5.46" ry="5.43" fill="#c85257"/><ellipse cx="412.41" cy="486.84" rx="5.46" ry="5.43" fill="#c85257"/><ellipse cx="487.85" cy="484.63" rx="5.46" ry="5.43" fill="#c85257"/><ellipse cx="478.92" cy="332.58" rx="5.46" ry="5.43" fill="#c85257"/><ellipse cx="560.27" cy="301.98" rx="5.46" ry="5.43" fill="#c85257"/><ellipse cx="550.35" cy="348.38" rx="5.46" ry="5.43" fill="#c85257"/><ellipse cx="565.23" cy="456.98" rx="5.46" ry="5.43" fill="#c85257"/><ellipse cx="582.04" cy="362.16" rx="5.46" ry="5.43" fill="#c85257"/><circle cx="21" cy="235" r="8.5" fill="#c85257"/><circle cx="56.81" cy="268.52" r="8.5" fill="#c85257"/><circle cx="16.76" cy="313.1" r="8.5" fill="#c85257"/><circle cx="50.63" cy="356.79" r="8.5" fill="#c85257"/><circle cx="12" cy="397.29" r="8.5" fill="#c85257"/><circle cx="61" cy="458" r="8.5" fill="#c85257"/><circle cx="105.14" cy="316.26" r="8.5" fill="#c85257"/><circle cx="98.94" cy="400.64" r="8.5" fill="#c85257"/><circle cx="119" cy="466" r="8.5" fill="#c85257"/><circle cx="148.4" cy="419.04" r="8.5" fill="#c85257"/><circle cx="153.98" cy="314.36" r="8.5" fill="#c85257"/><circle cx="280.44" cy="336.28" r="8.5" fill="#c85257"/><circle cx="226" cy="336" r="8.5" fill="#c85257"/><circle cx="243" cy="505" r="8.5" fill="#c85257"/><circle cx="181" cy="479" r="8.5" fill="#c85257"/><circle cx="592.39" cy="254.47" r="8.5" fill="#c85257"/><circle cx="446.94" cy="322.85" r="8.5" fill="#c85257"/><circle cx="362.1" cy="338.96" r="8.5" fill="#c85257"/><circle cx="530.29" cy="289.07" r="8.5" fill="#c85257"/><circle cx="506.96" cy="381.28" r="8.5" fill="#c85257"/><circle cx="412.69" cy="404.3" r="8.5" fill="#c85257"/><circle cx="340.58" cy="416.54" r="8.5" fill="#c85257"/><circle cx="267" cy="439" r="8.5" fill="#c85257"/><circle cx="348.09" cy="511.43" r="8.5" fill="#c85257"/><circle cx="367" cy="450" r="8.5" fill="#c85257"/><circle cx="443.73" cy="494.93" r="8.5" fill="#c85257"/><circle cx="460.69" cy="432.39" r="8.5" fill="#c85257"/><circle cx="525.99" cy="478.73" r="8.5" fill="#c85257"/><circle cx="501" cy="462" r="8.5" fill="#c85257"/><circle cx="556.48" cy="377.85" r="8.5" fill="#c85257"/><circle cx="590.41" cy="424.65" r="8.5" fill="#c85257"/><circle cx="601" cy="331" r="8.5" fill="#c85257"/><path d="M273.41,73.68c-27.6-7.59-66.29-11.44-91,7.62-14.69,11.31-21.73,37.88-2.44,48,1.36.71,2.26-1.34,1.52-2.39-19.68-27.76,12-44.78,33.12-48.64,19.08-3.48,39-3.36,58.12-.86C274.7,77.68,275.41,74.23,273.41,73.68Z" fill="#803b3d"/><path d="M319.41,157.68c-27.6-7.59-66.29-11.44-91,7.62-14.69,11.31-21.73,37.88-2.44,48,1.36.71,2.26-1.34,1.52-2.39-19.68-27.76,12-44.78,33.12-48.64,19.08-3.48,38.95-3.36,58.12-.86C320.7,161.68,321.41,158.23,319.41,157.68Z" fill="#803b3d"/><path d="M486.36,138.68c27.6-7.59,66.29-11.44,91,7.62,14.69,11.31,21.72,37.88,2.44,48-1.36.71-2.26-1.34-1.52-2.39,19.68-27.76-12-44.78-33.13-48.64-19.07-3.48-38.94-3.36-58.11-.86C485.07,142.68,484.35,139.23,486.36,138.68Z" fill="#803b3d"/><path d="M330.26,199.49l-16.43-5.92c-4.85-1.75-9.77-4.14-14.95-3.91" fill="#803b3d"/><path d="M575.44,99.59c-52.06-29.53-110-59-170.54-55.54-1.63.1-2.64,2.91-.65,3.37,29,6.8,58.42,10.72,87,19.72s55.4,22.85,82,37.05C575.69,105.48,577.87,101,575.44,99.59Z" fill="#803b3d"/><path d="M549.44,228.61c-52.06,29.52-110,59-170.54,55.53-1.63-.1-2.64-2.9-.65-3.37,29-6.8,58.42-10.72,87-19.72s55.4-22.84,82-37C549.69,222.71,551.87,227.23,549.44,228.61Z" fill="#803b3d"/><path d="M363.07,50.42c-4-.32-8.23-1.09-12.25-.47" fill="#803b3d"/><path d="M297,54.37c3.26,0,3-5.39-.22-5.39s-3,5.39.22,5.39" fill="#803b3d"/><path d="M254.71,22.45c-36.38-.7-75.54,11.25-110.16,22.21C113.21,54.58,77.36,68,56,95.64A1.56,1.56,0,0,0,57.91,98c30.75-18.81,58.68-37.09,93.26-47.66,33.56-10.27,69-19,103.8-22C258.53,28,258.24,22.51,254.71,22.45Z" fill="#803b3d"/><path d="M268.71,293.23c-36.38.69-75.54-11.25-110.16-22.22-31.34-9.92-67.19-23.29-88.58-51a1.56,1.56,0,0,1,1.94-2.38c30.75,18.81,58.68,37.09,93.26,47.66,33.56,10.27,69,19,103.8,22.05C272.53,287.67,272.24,293.16,268.71,293.23Z" fill="#803b3d"/><path d="M93.55,194.18c16.5-25.36,28.72-48.68,54.6-65" fill="#803b3d"/><path d="M411.23,203.52c-4,2.95-6.79,7.7-9.73,11.78-3.28,4.56-6.36,9.29-9.5,14-2.39,3.55,2.56,7.92,5,4.32,3.33-5,6.71-9.88,9.88-15,2.63-4.21,5.76-8.41,7.07-13.33A1.75,1.75,0,0,0,411.23,203.52Z" fill="#803b3d"/><path d="M385.23,129.52c-4,2.95-6.79,7.7-9.73,11.78-3.28,4.56-6.36,9.29-9.5,14-2.39,3.55,2.56,7.92,5,4.32,3.33-5,6.71-9.88,9.88-15,2.63-4.21,5.76-8.41,7.07-13.33A1.75,1.75,0,0,0,385.23,129.52Z" fill="#803b3d"/><path d="M42.3,150.5c14.55-11.8,31-20.16,45.79-31.4" fill="#803b3d"/><path d="M451.94,107.34c-9.54-3.65-19.42-6.24-29.19-9.13" fill="#803b3d"/></g></g></svg>