<svg id="_x31_" enable-background="new 0 0 24 24" height="512" viewBox="0 0 24 24" width="512" xmlns="http://www.w3.org/2000/svg"><g><path d="m15.785 24h-7.57c-.642 0-1.212-.408-1.419-1.015l-2.892-8.474c-.586-1.902.156-3.986 1.8-5.082l2.628-1.752c.418-.279.668-.744.668-1.247v-5.93c0-.276.224-.5.5-.5h5c.276 0 .5.224.5.5v5.93c0 .503.25.969.668 1.248l2.628 1.752c1.644 1.096 2.386 3.18 1.805 5.068l-2.897 8.486c-.207.608-.778 1.016-1.419 1.016zm-5.785-23v5.43c0 .838-.416 1.615-1.113 2.08l-2.628 1.752c-1.278.853-1.856 2.474-1.404 3.941l2.887 8.459c.07.202.259.338.473.338h7.569c.214 0 .404-.136.473-.339l2.892-8.472c.447-1.454-.13-3.075-1.409-3.928l-2.627-1.751c-.697-.465-1.113-1.242-1.113-2.08v-5.43z"/></g><g><path d="m12 18c-2.206 0-4-1.794-4-4s1.794-4 4-4 4 1.794 4 4-1.794 4-4 4zm0-7c-1.654 0-3 1.346-3 3s1.346 3 3 3 3-1.346 3-3-1.346-3-3-3z"/></g><g><path d="m17.82 10.22c-.125 0-.249-.046-.346-.139-.2-.191-.207-.508-.016-.707.35-.365.542-.853.542-1.374 0-1.103-.897-2-2-2-.432 0-.858.142-1.199.399-.221.164-.535.122-.7-.099-.167-.22-.123-.533.098-.7.513-.386 1.153-.6 1.801-.6 1.654 0 3 1.346 3 3 0 .78-.291 1.514-.819 2.065-.098.103-.229.155-.361.155z"/></g><g><path d="m14.5 4h-5c-.276 0-.5-.224-.5-.5s.224-.5.5-.5h5c.276 0 .5.224.5.5s-.224.5-.5.5z"/></g></svg>