<svg viewBox="0 0 329 417" xmlns="http://www.w3.org/2000/svg">
    <title>Blueberry Jam</title>
    <g data-name="Layer 2" id="Layer_2">
        <g data-name="Layer 1" id="Layer_1-2">
            <path
                d="M289,122.52V348a40.27,40.27,0,0,1-40.27,40.27H80.26A40.26,40.26,0,0,1,40,348V122.52A40.26,40.26,0,0,1,80.26,82.25c13.82,0,30.84-3.21,33.91-19.5H214.83c-.56,0,3.76,8.47,4.3,9.15A28.15,28.15,0,0,0,226.06,78c7.2,4.5,14.55,4.27,22.67,4.27A40.27,40.27,0,0,1,289,122.52Z"
                fill="#d8d8d8" />
            <rect fill="#f3c366" height="34" rx="17" width="167" x="81" y="28.75" />
            <rect fill="#f47b50" height="184" width="249" x="40" y="138.25" />
            <path
                d="M215.27,218c11.34-19.54,10.72-43.25.56-64.64-19.59,3.76-36.47,14.43-46.24,31.27-11.35,19.54-10.72,43.24-.57,64.63C188.62,245.51,205.49,234.85,215.27,218Z"
                fill="#108848" />
            <path
                d="M149.71,179.06c16.91,10.8,26.07,29.75,26.77,50.76-17,5-34.65,3.47-49.22-5.83-16.9-10.8-26.06-29.75-26.76-50.76C117.49,168.22,135.14,169.76,149.71,179.06Z"
                fill="#669940" />
            <circle cx="138.68" cy="242.74" fill="#464ca6" r="32.86" />
            <polygon fill="#403488"
                points="139.69 232.72 135.64 230.63 131.62 232.78 132.35 228.28 129.06 225.13 133.57 224.44 135.55 220.33 137.6 224.4 142.12 225.02 138.88 228.23 139.69 232.72" />
            <circle cx="171.98" cy="270.78" fill="#556bb8" r="32.86" />
            <polygon fill="#403488"
                points="158.97 265.14 154.91 263.05 150.9 265.2 151.63 260.71 148.34 257.55 152.85 256.86 154.83 252.76 156.88 256.83 161.4 257.44 158.16 260.65 158.97 265.14" />
            <circle cx="195.64" cy="242.74" fill="#314e79" r="32.86" />
            <polygon fill="#23256e"
                points="211.54 235.34 207.49 233.26 203.47 235.41 204.21 230.91 200.92 227.76 205.42 227.07 207.41 222.96 209.46 227.03 213.97 227.65 210.74 230.86 211.54 235.34" />
            <rect fill="none" height="417" width="329" />
        </g>
    </g>
</svg>