<svg viewBox="0 0 323 323" xmlns="http://www.w3.org/2000/svg">
    <title>ButterScotch Cream</title>
    <g data-name="Layer 2" id="Layer_2">
        <g data-name="Layer 1" id="Layer_1-2">
            <path
                d="M87.27,244.66c2,0,4-1.4,5.79-2.1l16.76-6.51,24.7-9.61,30-11.66,32.66-12.69,32.68-12.7,30.05-11.69,24.78-9.63,17-6.61c1.79-.69,4.05-1,5.57-2.26-3.57-.88-7.42-1-10.64-2.95a32.16,32.16,0,0,1-6.09-4.87c-4.24-4.26-6-8.66-8.62-14.89-3.34-8.08-2.39-9.84-5.64-14.6-1.57-2.3-5.13-7.52-11.19-9.11-4.42-1.16-5.36.89-12.13.85-3,0-10.26,0-16.64-4.6-5.56-4-7.9-9.51-8.91-11.9-2.82-6.68-.77-8.38-3.64-14.41-.92-1.92-3.84-7.86-10-11-1.38-.71-2.64-1.13-12.85-2.24-12.16-1.32-13.63-1.07-16.83-2.61A25.75,25.75,0,0,1,174.79,59c-2.24-3-2.9-5.14-5-10.52-3.86-9.84-5.79-14.76-7.44-16.78-2.91-3.6-8.7-7.24-21.42-7.07q-2,5.61-4.06,11.24-5.22,14.49-10.43,29-7.12,19.83-14.23,39.67-7.74,21.65-15.44,43.32-7.08,19.94-14.09,39.9c-3.42,9.79-6.85,19.59-10.14,29.43-1.22,3.64-4,7.57-3.41,11.55,2.69.21,6-2.6,8.31-3.69,1.06-.5,6-1.93,6.47-3L80,230.72c-1.29,2.91-3.09,5.63-3.74,8.79-.07.36,4.56-1.75,4.8-1.91,1.64-1.08,3.11-2.41,4.79-3.44,3.13-1.93,6.43-4.67,9.84-6-.38.15-1.53,3.08-1.74,3.48-.86,1.62-1.71,3.24-2.57,4.85C90,239.15,87.16,241.43,87.27,244.66Z"
                fill="#ffff78" stroke="#000" stroke-miterlimit="10" stroke-width="4" />
            <path
                d="M139.09,223.39l-48.75,19c-.63.24-1.25.55-1.85.84l-.17.09c.31-.48.67-1,1-1.49a21.92,21.92,0,0,0,1.77-2.69l2.57-4.85c.07-.13.21-.45.39-.87s.74-1.71,1-2.13a1.85,1.85,0,0,1-.69.45L93,228h0a35.37,35.37,0,0,0-7.22,4.18c-1,.7-2,1.37-2.95,2s-1.92,1.32-2.81,2c-.67.52-1.31,1-2,1.45l-.43.2c.29-.61.6-1.23.92-1.85.44-.88.9-1.78,1.31-2.71l3.9-8.75h0l-3.66-1.62a1,1,0,0,1,.2-.32,22.18,22.18,0,0,1-4,1.7c-.76.27-1.3.47-1.66.64a25.61,25.61,0,0,0-2.52,1.42,26.12,26.12,0,0,1-2.87,1.6,24.08,24.08,0,0,1,1.81-5,37.15,37.15,0,0,0,1.42-3.47c3.17-9.49,6.47-18.93,10.13-29.41,1.63-4.67,3.31-9.45,5.11-14.55Z" />
            <path
                d="M71.44,250.58c.9.49-6,21.24-6.56,22.64-3.24,8.44-7.49,18.3-15.16,23.66C35.07,307.09,5,264,19.66,253.78,32.39,244.91,57.12,246.56,71.44,250.58Z"
                fill="#ffff78" stroke="#000" stroke-miterlimit="10" stroke-width="4" />
            <rect fill="none" height="323" width="323" />
        </g>
    </g>
</svg>