<svg viewBox="0 0 329 417" xmlns="http://www.w3.org/2000/svg">
    <title>Mango Jam</title>
    <g data-name="Layer 2" id="Layer_2">
        <g data-name="Layer 1" id="Layer_1-2">
            <path
                d="M289,122.52V348a40.27,40.27,0,0,1-40.27,40.27H80.26A40.26,40.26,0,0,1,40,348V122.52A40.26,40.26,0,0,1,80.26,82.25c13.82,0,30.84-3.21,33.91-19.5H214.83c-.56,0,3.76,8.47,4.3,9.15A28.15,28.15,0,0,0,226.06,78c7.2,4.5,14.55,4.27,22.67,4.27A40.27,40.27,0,0,1,289,122.52Z"
                fill="#d8d8d8" />
            <rect fill="#f3c366" height="34" rx="17" width="167" x="81.69" y="28.75" />
            <rect fill="#f47b50" height="184" width="249" x="40" y="138.25" />
            <path
                d="M221,162.78c12.27,1.43,22.44,9.46,28.49,20.91-8.06,7.35-18.25,11.25-28.83,10-12.27-1.42-22.45-9.45-28.5-20.9C200.17,165.46,210.37,161.55,221,162.78Z"
                fill="#669940" />
            <path
                d="M169.9,224.41a3.23,3.23,0,0,1-1.79-5.93,53.89,53.89,0,0,0,16.29-16.8c10.71-17.54,7.83-36.22,6.1-43.44a3.23,3.23,0,1,1,6.29-1.51c1.92,8,5.1,28.73-6.86,48.32a60.05,60.05,0,0,1-18.24,18.82A3.18,3.18,0,0,1,169.9,224.41Z"
                fill="#8c6239" />
            <path
                d="M101.25,254.13c.65-.24,1.28-.46,1.88-.64a31.08,31.08,0,0,0,17.71-14.19c12.17-21.13,17.94-58.24,49.89-59.05.79,0,1.6,0,2.39.05,16.7.18,29.34,13,36.21,26.53,18.79,37.12-17.08,76.75-50.39,91.88-10.65,4.83-22.24,7.94-34.06,8-17.49,0-38.71-8.11-44.37-25.57a19.43,19.43,0,0,1,3.9-18.79C88.61,257.29,95.31,256.3,101.25,254.13Z"
                fill="#ffe040" />
            <rect fill="none" height="417" width="329" />
        </g>
    </g>
</svg>