<svg viewBox="0 0 329 417" xmlns="http://www.w3.org/2000/svg">
    <title>Strawberry Jam</title>
    <g data-name="Layer 2" id="Layer_2">
        <g data-name="Layer 1" id="Layer_1-2">
            <path
                d="M289,122.52V348a40.27,40.27,0,0,1-40.27,40.27H80.26A40.26,40.26,0,0,1,40,348V122.52A40.26,40.26,0,0,1,80.26,82.25c13.82,0,30.84-3.21,33.91-19.5H214.83c-.56,0,3.76,8.47,4.3,9.15A28.15,28.15,0,0,0,226.06,78c7.2,4.5,14.55,4.27,22.67,4.27A40.27,40.27,0,0,1,289,122.52Z"
                fill="#d8d8d8" />
            <rect fill="#f3c366" height="34" rx="17" width="167" x="81" y="28.75" />
            <rect fill="#f47b50" height="184" width="249" x="40" y="138.25" />
            <path
                d="M197.18,215.83c-11.27,1.37-22.09-3.61-30-12.53,5.61-8.31,13.88-14,23.59-15.17,11.27-1.37,22.09,3.6,30,12.53C215.16,209,206.89,214.65,197.18,215.83Z"
                fill="#669940" />
            <path
                d="M148.48,175.43c11.12,2.27,19.8,10.43,24.43,21.39-8,6.1-17.6,8.86-27.19,6.9-11.12-2.28-19.8-10.44-24.43-21.4C129.25,176.23,138.89,173.46,148.48,175.43Z"
                fill="#669940" />
            <path
                d="M162.59,174.72c3.59-10.78,12.72-18.43,24.16-21.72,5.1,8.63,6.69,18.54,3.6,27.82-3.58,10.77-12.71,18.42-24.15,21.71C161.1,193.9,159.5,184,162.59,174.72Z"
                fill="#669940" />
            <path
                d="M147.82,192.82c-22.88.43-47.87,17.47-39.69,43.63,8.72,27.88,19.68,82.76,62.55,68,20.47-7.06,30.3-29.21,44-44.17,13.89-15.12,7.74-39.5-7.81-50.65-15.23-10.93-35.81-15-54.14-16.61A45.22,45.22,0,0,0,147.82,192.82Z"
                fill="#d9240c" />
            <path
                d="M128.92,227.19a4.72,4.72,0,0,0,3.21-1.33,4.55,4.55,0,0,0-3.21-7.76,4.68,4.68,0,0,0-3.21,1.33,4.54,4.54,0,0,0,3.21,7.76Z"
                fill="#e9cd62" />
            <path
                d="M155.2,216.36a4.54,4.54,0,0,0,4.55-4.54,4.62,4.62,0,0,0-4.55-4.54,4.67,4.67,0,0,0-3.21,1.33,4.54,4.54,0,0,0,3.21,7.75Z"
                fill="#e9cd62" />
            <path
                d="M193.86,232.6a4.7,4.7,0,0,0,3.21-1.33,4.55,4.55,0,0,0-3.21-7.76,4.7,4.7,0,0,0-3.21,1.33,4.55,4.55,0,0,0,3.21,7.76Z"
                fill="#e9cd62" />
            <path
                d="M166.8,239.56a4.7,4.7,0,0,0,3.21-1.33,4.55,4.55,0,0,0-3.21-7.76,4.7,4.7,0,0,0-3.21,1.33,4.55,4.55,0,0,0,3.21,7.76Z"
                fill="#e9cd62" />
            <path
                d="M172.86,227.06a4.67,4.67,0,0,0,3.21-1.33,4.54,4.54,0,0,0-3.21-7.75,4.72,4.72,0,0,0-3.22,1.33,4.54,4.54,0,0,0,3.22,7.75Z"
                fill="#e9cd62" />
            <path
                d="M139,248.83a4.65,4.65,0,0,0,3.21-1.33,4.54,4.54,0,0,0-3.21-7.75,4.68,4.68,0,0,0-3.21,1.33,4.57,4.57,0,0,0-1.33,3.21,4.62,4.62,0,0,0,4.54,4.54Z"
                fill="#e9cd62" />
            <path
                d="M152.11,273.57a4.54,4.54,0,0,0,0-9.08,4.7,4.7,0,0,0-3.21,1.33,4.54,4.54,0,0,0,3.21,7.75Z"
                fill="#e9cd62" />
            <path
                d="M181.49,258.88a4.65,4.65,0,0,0,3.21-1.33,4.54,4.54,0,0,0-3.21-7.75,4.7,4.7,0,0,0-3.21,1.33,4.54,4.54,0,0,0,3.21,7.75Z"
                fill="#e9cd62" />
            <path
                d="M173,282.08a4.72,4.72,0,0,0,3.21-1.33A4.55,4.55,0,0,0,173,273a4.72,4.72,0,0,0-3.22,1.33,4.55,4.55,0,0,0,3.22,7.76Z"
                fill="#e9cd62" />
            <path
                d="M154.43,293.67a4.65,4.65,0,0,0,3.21-1.33,4.54,4.54,0,0,0-3.21-7.75,4.7,4.7,0,0,0-3.21,1.33,4.54,4.54,0,0,0,3.21,7.75Z"
                fill="#e9cd62" />
            <path
                d="M132.78,272A4.68,4.68,0,0,0,136,270.7a4.55,4.55,0,0,0-3.21-7.76,4.7,4.7,0,0,0-3.21,1.33,4.55,4.55,0,0,0,3.21,7.76Z"
                fill="#e9cd62" />
            <path
                d="M159.84,255a4.68,4.68,0,0,0,3.21-1.33,4.55,4.55,0,0,0-3.21-7.76,4.7,4.7,0,0,0-3.21,1.33,4.55,4.55,0,0,0,3.21,7.76Z"
                fill="#e9cd62" />
            <path
                d="M204.68,250.38a4.72,4.72,0,0,0,3.22-1.33,4.54,4.54,0,0,0-6.43-6.42,4.54,4.54,0,0,0,3.21,7.75Z"
                fill="#e9cd62" />
            <rect fill="none" height="417" width="329" />
        </g>
    </g>
</svg>